<svg width="20" height="20" viewBox="0 0 20 20" fill="none" xmlns="http://www.w3.org/2000/svg">
<circle cx="10" cy="10" r="10" fill="#8ECAA8"/>
<path d="M3.63635 9C3.08407 9 2.63635 9.44772 2.63635 10C2.63635 10.5523 3.08407 11 3.63635 11L3.63635 9ZM17.0707 10.7071C17.4613 10.3166 17.4613 9.68342 17.0707 9.29289L10.7068 2.92893C10.3162 2.53841 9.68308 2.53841 9.29256 2.92893C8.90203 3.31946 8.90203 3.95262 9.29256 4.34315L14.9494 10L9.29256 15.6569C8.90203 16.0474 8.90203 16.6805 9.29256 17.0711C9.68308 17.4616 10.3162 17.4616 10.7068 17.0711L17.0707 10.7071ZM3.63635 11L16.3636 11V9L3.63635 9L3.63635 11Z" fill="black"/>
</svg>
