<?xml version="1.0" encoding="UTF-8"?>
<svg id="Camada_1" data-name="Camada 1" xmlns="http://www.w3.org/2000/svg" xmlns:xlink="http://www.w3.org/1999/xlink" viewBox="0 0 1920 1080">
  <defs>
    <style>
      .cls-1 {
        fill: #be94ff;
      }

      .cls-2 {
        clip-path: url(#clippath-6);
      }

      .cls-3 {
        clip-path: url(#clippath-7);
      }

      .cls-4 {
        stroke: #000;
        stroke-miterlimit: 10;
      }

      .cls-4, .cls-5 {
        fill: none;
      }

      .cls-6 {
        clip-path: url(#clippath-4);
      }

      .cls-7 {
        fill: #bcb8aa;
      }

      .cls-8 {
        fill: #fff;
      }

      .cls-9 {
        fill: #d2b6ff;
      }

      .cls-10 {
        fill: #a09c8d;
      }

      .cls-11 {
        clip-path: url(#clippath-1);
      }

      .cls-12 {
        fill: #85ddae;
      }

      .cls-13 {
        clip-path: url(#clippath-5);
      }

      .cls-14 {
        clip-path: url(#clippath-3);
      }

      .cls-15 {
        fill: #150035;
      }

      .cls-16 {
        fill: #a0e0bb;
      }

      .cls-17 {
        fill: #caa1ff;
      }

      .cls-18 {
        fill: url(#Gradiente_sem_nome_4);
      }

      .cls-19 {
        clip-path: url(#clippath-2);
      }

      .cls-20 {
        fill: #72ce99;
      }

      .cls-21 {
        clip-path: url(#clippath);
      }
    </style>
    <clipPath id="clippath">
      <polygon class="cls-5" points="652.73 729.43 656.88 731.83 698.36 755.77 957.94 905.64 1110.54 817.54 1263.14 729.43 957.94 553.22 652.73 729.43"/>
    </clipPath>
    <clipPath id="clippath-1">
      <polygon class="cls-5" points="652.73 729.43 656.88 731.83 698.36 755.77 957.94 905.64 1110.54 817.54 1263.14 729.43 957.94 553.22 652.73 729.43"/>
    </clipPath>
    <clipPath id="clippath-2">
      <polygon class="cls-5" points="652.73 729.43 656.88 731.83 698.36 755.77 957.94 905.64 1110.54 817.54 1263.14 729.43 957.94 553.22 652.73 729.43"/>
    </clipPath>
    <clipPath id="clippath-3">
      <path class="cls-5" d="M734.52,412.15c-19.77,11.53-19.77,30.24,0,41.77,19.77,11.53,51.82,11.53,71.59,0,19.77-11.53,19.77-30.24,0-41.77-9.88-5.77-22.84-8.65-35.79-8.65s-25.91,2.88-35.79,8.65"/>
    </clipPath>
    <clipPath id="clippath-4">
      <path class="cls-5" d="M1119.31,606c-12.95,0-25.91,2.88-35.79,8.65-19.77,11.53-19.77,30.24,0,41.77,19.77,11.54,51.82,11.54,71.59,0,19.77-11.53,19.77-30.24,0-41.77-9.88-5.77-22.83-8.65-35.78-8.65h-.01"/>
    </clipPath>
    <clipPath id="clippath-5">
      <rect class="cls-5" width="1920" height="1080"/>
    </clipPath>
    <clipPath id="clippath-6">
      <path class="cls-5" d="M936.79,543.18c0,1.18.77,2.37,2.32,3.27,3.1,1.81,8.11,1.81,11.21,0,1.56-.91,2.33-2.1,2.32-3.29v-225.28l-15.85-.02v225.32Z"/>
    </clipPath>
    <linearGradient id="Gradiente_sem_nome_4" data-name="Gradiente sem nome 4" x1="0" y1="1080" x2="1" y2="1080" gradientTransform="translate(249289.28 547.8) rotate(-90) scale(229.95 -229.95)" gradientUnits="userSpaceOnUse">
      <stop offset="0" stop-color="#85ddae"/>
      <stop offset="1" stop-color="#caa1ff"/>
      <stop offset="1" stop-color="#caa1ff"/>
    </linearGradient>
    <clipPath id="clippath-7">
      <rect class="cls-5" width="1920" height="1080"/>
    </clipPath>
  </defs>
  <g class="cls-21">
    <rect x="871.93" y="825.29" width="460.18" height="1.86" transform="translate(-265.36 660.83) rotate(-29.96)"/>
    <rect x="877.03" y="828.01" width="460.18" height="1.86" transform="translate(-266.04 663.74) rotate(-29.96)"/>
    <rect x="881.67" y="830.91" width="460.18" height="1.86" transform="translate(-266.87 666.44) rotate(-29.96)"/>
    <rect x="886.87" y="833.57" width="460.18" height="1.86" transform="translate(-267.5 669.4) rotate(-29.96)"/>
    <rect x="891.16" y="836.56" width="460.18" height="1.86" transform="translate(-268.42 671.94) rotate(-29.96)"/>
    <rect x="896.27" y="839.28" width="460.18" height="1.86" transform="translate(-269.1 674.85) rotate(-29.96)"/>
    <rect x="900.9" y="842.18" width="460.18" height="1.86" transform="translate(-269.93 677.55) rotate(-29.96)"/>
    <rect x="906.1" y="844.85" width="460.18" height="1.86" transform="translate(-270.56 680.5) rotate(-29.96)"/>
    <rect x="910.73" y="847.75" width="460.18" height="1.86" transform="translate(-271.39 683.2) rotate(-29.96)"/>
    <rect x="915.92" y="850.46" width="460.18" height="1.86" transform="translate(-272.05 686.16) rotate(-29.96)"/>
    <rect x="920.55" y="853.36" width="460.18" height="1.86" transform="translate(-272.88 688.86) rotate(-29.96)"/>
    <rect x="925.75" y="856.02" width="460.18" height="1.86" transform="translate(-273.52 691.81) rotate(-29.96)"/>
    <rect x="930.04" y="859.01" width="460.17" height="1.86" transform="translate(-274.44 694.36) rotate(-29.96)"/>
    <rect x="935.15" y="861.73" width="460.17" height="1.86" transform="translate(-275.11 697.27) rotate(-29.96)"/>
    <rect x="939.78" y="864.63" width="460.18" height="1.86" transform="translate(-275.94 699.97) rotate(-29.96)"/>
    <rect x="944.98" y="867.3" width="460.18" height="1.86" transform="translate(-276.58 702.92) rotate(-29.96)"/>
    <rect x="949.61" y="870.2" width="460.18" height="1.86" transform="translate(-277.41 705.62) rotate(-29.96)"/>
  </g>
  <polygon points="892.19 867.68 894.04 868.75 1199.44 692.65 1197.58 691.58 892.19 867.68"/>
  <polygon points="897.09 870.51 898.95 871.59 1204.34 695.48 1202.49 694.41 897.09 870.51"/>
  <polygon points="901.83 873.25 903.68 874.32 1209.08 698.22 1207.22 697.15 901.83 873.25"/>
  <polygon points="906.74 876.08 908.59 877.15 1213.99 701.05 1212.13 699.98 906.74 876.08"/>
  <polygon points="911.56 878.87 913.42 879.94 1218.82 703.84 1216.96 702.77 911.56 878.87"/>
  <polygon points="916.47 881.7 918.33 882.77 1223.72 706.67 1221.86 705.6 916.47 881.7"/>
  <polygon points="921.3 884.49 923.15 885.56 1228.55 709.46 1226.69 708.39 921.3 884.49"/>
  <polygon points="926.24 887.34 928.1 888.41 1233.49 712.31 1231.64 711.24 926.24 887.34"/>
  <polygon points="931.07 890.13 932.92 891.2 1238.32 715.1 1236.46 714.03 931.07 890.13"/>
  <polygon points="935.98 892.96 937.83 894.04 1243.23 717.93 1241.37 716.86 935.98 892.96"/>
  <polygon points="940.71 895.7 942.57 896.77 1247.96 720.67 1246.1 719.6 940.71 895.7"/>
  <polygon points="945.62 898.53 947.47 899.6 1252.87 723.5 1251.01 722.43 945.62 898.53"/>
  <polygon points="950.44 901.32 952.3 902.39 1257.7 726.29 1255.84 725.22 950.44 901.32"/>
  <polygon points="955.35 904.15 957.21 905.22 1262.6 729.12 1260.75 728.05 955.35 904.15"/>
  <g class="cls-11">
    <rect x="871.66" y="825.45" width="460.18" height="1.86" transform="translate(-265.48 660.71) rotate(-29.96)"/>
  </g>
  <polygon points="814.43 822.79 816.29 823.86 1121.68 647.76 1119.83 646.69 814.43 822.79"/>
  <polygon points="819.34 825.62 821.2 826.69 1126.59 650.59 1124.74 649.52 819.34 825.62"/>
  <polygon points="824.17 828.41 826.03 829.48 1131.42 653.38 1129.56 652.31 824.17 828.41"/>
  <polygon points="829.08 831.24 830.93 832.31 1136.33 656.22 1134.47 655.14 829.08 831.24"/>
  <polygon points="833.81 833.98 835.67 835.05 1141.06 658.95 1139.2 657.88 833.81 833.98"/>
  <polygon points="838.72 836.81 840.57 837.88 1145.97 661.78 1144.11 660.71 838.72 836.81"/>
  <polygon points="843.55 839.6 845.4 840.67 1150.79 664.57 1148.94 663.5 843.55 839.6"/>
  <polygon points="848.45 842.43 850.31 843.5 1155.71 667.4 1153.85 666.33 848.45 842.43"/>
  <polygon points="853.28 845.22 855.14 846.29 1160.53 670.19 1158.67 669.12 853.28 845.22"/>
  <polygon points="858.22 848.07 860.08 849.14 1165.47 673.04 1163.62 671.97 858.22 848.07"/>
  <polygon points="863.05 850.86 864.91 851.93 1170.3 675.83 1168.44 674.76 863.05 850.86"/>
  <polygon points="867.96 853.69 869.81 854.76 1175.21 678.66 1173.35 677.59 867.96 853.69"/>
  <polygon points="872.69 856.43 874.55 857.5 1179.94 681.4 1178.09 680.33 872.69 856.43"/>
  <polygon points="877.6 859.26 879.46 860.33 1184.85 684.23 1182.99 683.16 877.6 859.26"/>
  <polygon points="882.43 862.05 884.28 863.12 1189.68 687.02 1187.82 685.94 882.43 862.05"/>
  <polygon points="887.34 864.88 889.19 865.95 1194.59 689.85 1192.73 688.78 887.34 864.88"/>
  <polygon points="746.44 783.53 748.3 784.6 1053.69 608.5 1051.83 607.43 746.44 783.53"/>
  <polygon points="751.35 786.36 753.21 787.44 1058.6 611.34 1056.74 610.27 751.35 786.36"/>
  <polygon points="756.08 789.1 757.94 790.17 1063.33 614.07 1061.48 613 756.08 789.1"/>
  <polygon points="760.99 791.93 762.85 793 1068.24 616.9 1066.38 615.83 760.99 791.93"/>
  <polygon points="765.82 794.72 767.67 795.79 1073.07 619.69 1071.21 618.62 765.82 794.72"/>
  <polygon points="770.73 797.55 772.58 798.62 1077.98 622.53 1076.12 621.45 770.73 797.55"/>
  <polygon points="775.55 800.34 777.41 801.41 1082.8 625.31 1080.95 624.24 775.55 800.34"/>
  <polygon points="780.5 803.19 782.35 804.27 1087.74 628.17 1085.89 627.09 780.5 803.19"/>
  <polygon points="785.32 805.98 787.18 807.05 1092.57 630.95 1090.71 629.88 785.32 805.98"/>
  <polygon points="790.23 808.81 792.09 809.89 1097.48 633.79 1095.62 632.71 790.23 808.81"/>
  <polygon points="794.97 811.55 796.82 812.62 1102.22 636.52 1100.36 635.45 794.97 811.55"/>
  <polygon points="799.87 814.38 801.73 815.45 1107.12 639.35 1105.26 638.28 799.87 814.38"/>
  <polygon points="804.7 817.17 806.56 818.24 1111.95 642.14 1110.09 641.07 804.7 817.17"/>
  <polygon points="809.61 820 811.46 821.07 1116.86 644.97 1115 643.9 809.61 820"/>
  <polygon points="814.43 822.79 816.29 823.86 1121.69 647.76 1119.83 646.69 814.43 822.79"/>
  <polygon points="673.7 741.53 675.55 742.61 980.95 566.51 979.09 565.43 673.7 741.53"/>
  <polygon points="678.61 744.37 680.46 745.44 985.86 569.34 984 568.27 678.61 744.37"/>
  <polygon points="683.43 747.15 685.29 748.23 990.68 572.13 988.83 571.05 683.43 747.15"/>
  <polygon points="688.34 749.99 690.2 751.06 995.59 574.96 993.73 573.89 688.34 749.99"/>
  <polygon points="693.08 752.72 694.93 753.79 1000.33 577.69 998.47 576.62 693.08 752.72"/>
  <polygon points="697.98 755.55 698.36 755.77 699.84 756.63 1005.23 580.53 1003.38 579.45 697.98 755.55"/>
  <polygon points="702.81 758.34 704.67 759.41 1010.06 583.31 1008.2 582.24 702.81 758.34"/>
  <polygon points="707.72 761.17 709.58 762.25 1014.97 586.15 1013.11 585.08 707.72 761.17"/>
  <polygon points="712.55 763.96 714.4 765.03 1019.79 588.93 1017.94 587.86 712.55 763.96"/>
  <polygon points="717.49 766.82 719.35 767.89 1024.74 591.79 1022.88 590.72 717.49 766.82"/>
  <polygon points="722.32 769.6 724.17 770.67 1029.57 594.58 1027.71 593.5 722.32 769.6"/>
  <polygon points="727.23 772.44 729.08 773.51 1034.47 597.41 1032.62 596.34 727.23 772.44"/>
  <polygon points="731.96 775.17 733.82 776.24 1039.21 600.14 1037.35 599.07 731.96 775.17"/>
  <polygon points="736.87 778 738.72 779.08 1044.12 602.98 1042.26 601.9 736.87 778"/>
  <polygon points="741.69 780.79 743.55 781.86 1048.94 605.76 1047.09 604.69 741.69 780.79"/>
  <g class="cls-19">
    <rect x="516.83" y="620.99" width="460.18" height="1.85" transform="translate(-210.79 456.17) rotate(-29.96)"/>
    <rect x="522.03" y="623.66" width="460.18" height="1.85" transform="translate(-211.42 459.13) rotate(-29.96)"/>
    <rect x="526.32" y="626.65" width="460.18" height="1.86" transform="translate(-212.34 461.67) rotate(-29.96)"/>
    <rect x="531.43" y="629.37" width="460.18" height="1.85" transform="translate(-213.02 464.58) rotate(-29.96)"/>
    <rect x="536.06" y="632.27" width="460.18" height="1.85" transform="translate(-213.85 467.28) rotate(-29.96)"/>
    <rect x="541.26" y="634.93" width="460.18" height="1.85" transform="translate(-214.48 470.24) rotate(-29.96)"/>
    <rect x="545.89" y="637.83" width="460.18" height="1.86" transform="translate(-215.31 472.94) rotate(-29.96)"/>
    <rect x="551.08" y="640.54" width="460.18" height="1.86" transform="translate(-215.97 475.89) rotate(-29.96)"/>
    <rect x="555.71" y="643.44" width="460.18" height="1.86" transform="translate(-216.8 478.59) rotate(-29.96)"/>
    <rect x="560.91" y="646.11" width="460.18" height="1.86" transform="translate(-217.44 481.55) rotate(-29.96)"/>
  </g>
  <polygon points="654.23 730.29 656.08 731.37 961.48 555.26 959.62 554.19 654.23 730.29"/>
  <polygon points="659.13 733.13 660.99 734.2 966.39 558.1 964.53 557.03 659.13 733.13"/>
  <polygon points="663.96 735.91 665.82 736.99 971.21 560.89 969.36 559.81 663.96 735.91"/>
  <polygon points="668.87 738.75 670.73 739.82 976.12 563.72 974.27 562.65 668.87 738.75"/>
  <polygon points="673.7 741.53 675.55 742.61 980.95 566.51 979.09 565.43 673.7 741.53"/>
  <polygon class="cls-8" points="698.7 634.43 653.82 608.52 958.03 432.89 1262.23 608.52 958.03 784.15 698.7 634.43"/>
  <path d="M958.03,433.46l303.2,175.06-151.1,87.24-152.1,87.82-259.07-149.58-41.48-23.95-2.65-1.53,303.2-175.06ZM958.03,432.31l-305.2,176.21,4.15,2.4,41.48,23.95,259.57,149.87,152.6-88.11,152.6-88.11-305.2-176.21Z"/>
  <polygon class="cls-10" points="653.32 709.68 653.32 609.39 698.2 635.29 957.53 785.02 957.53 885.3 653.32 709.68"/>
  <path d="M653.82,610.25l2.65,1.53,41.48,23.94,259.07,149.58v99.13l-303.2-175.05v-99.14ZM652.82,608.52v101.45l305.2,176.2v-101.44l-259.57-149.87-41.48-23.94-4.15-2.4Z"/>
  <polygon class="cls-7" points="958.53 785.02 1262.73 609.39 1262.73 709.67 958.53 885.3 958.53 785.02"/>
  <path d="M1262.23,610.25v99.13l-303.2,175.05v-99.13l152.1-87.82,151.1-87.24ZM1263.23,608.52h0l-152.6,88.1-152.6,88.1v101.44l305.2-176.21v-101.44Z"/>
  <g class="cls-14">
    <polygon points="733.98 461.62 733.38 460.55 821.4 409.36 822.01 410.43 733.98 461.62"/>
    <polygon points="737.34 463.43 736.73 462.36 824.76 411.17 825.37 412.24 737.34 463.43"/>
    <polygon points="740.38 465.35 739.78 464.28 827.8 413.1 828.41 414.17 740.38 465.35"/>
    <polygon points="743.8 467.12 743.2 466.05 831.22 414.87 831.83 415.94 743.8 467.12"/>
    <polygon points="746.62 469.11 746.02 468.04 834.05 416.85 834.65 417.92 746.62 469.11"/>
    <polygon points="749.98 470.92 749.37 469.85 837.4 418.66 838.01 419.73 749.98 470.92"/>
    <polygon points="753.02 472.84 752.42 471.77 840.44 420.59 841.05 421.66 753.02 472.84"/>
    <polygon points="756.44 474.61 755.84 473.54 843.87 422.36 844.47 423.43 756.44 474.61"/>
    <polygon points="759.49 476.54 758.88 475.47 846.91 424.29 847.52 425.35 759.49 476.54"/>
    <polygon points="762.9 478.34 762.29 477.27 850.32 426.09 850.93 427.16 762.9 478.34"/>
    <polygon points="765.94 480.27 765.34 479.2 853.37 428.01 853.97 429.08 765.94 480.27"/>
    <polygon points="769.36 482.04 768.76 480.97 856.79 429.78 857.39 430.85 769.36 482.04"/>
    <polygon points="772.19 484.03 771.58 482.96 859.61 431.77 860.21 432.84 772.19 484.03"/>
    <polygon points="775.54 485.83 774.94 484.76 862.96 433.58 863.57 434.65 775.54 485.83"/>
    <polygon points="778.59 487.76 777.98 486.69 866.01 435.5 866.61 436.57 778.59 487.76"/>
    <polygon points="782.01 489.53 781.4 488.46 869.43 437.27 870.03 438.34 782.01 489.53"/>
    <polygon points="689.13 435.62 688.53 434.55 776.55 383.36 777.16 384.43 689.13 435.62"/>
    <polygon points="692.55 437.39 691.95 436.32 779.98 385.13 780.58 386.2 692.55 437.39"/>
    <polygon points="695.38 439.37 694.77 438.31 782.8 387.12 783.4 388.19 695.38 439.37"/>
    <polygon points="698.73 441.18 698.13 440.11 786.15 388.93 786.76 389.99 698.73 441.18"/>
    <polygon points="701.78 443.11 701.17 442.04 789.2 390.85 789.8 391.92 701.78 443.11"/>
    <polygon points="705.2 444.88 704.59 443.81 792.62 392.62 793.22 393.69 705.2 444.88"/>
    <polygon points="708.24 446.81 707.63 445.74 795.66 394.55 796.27 395.62 708.24 446.81"/>
    <polygon points="711.65 448.61 711.05 447.54 799.07 396.35 799.68 397.42 711.65 448.61"/>
    <polygon points="714.7 450.53 714.09 449.47 802.12 398.28 802.72 399.35 714.7 450.53"/>
    <polygon points="718.12 452.3 717.51 451.24 805.54 400.05 806.15 401.12 718.12 452.3"/>
    <polygon points="720.94 454.29 720.33 453.22 808.36 402.04 808.97 403.1 720.94 454.29"/>
    <polygon points="724.29 456.1 723.69 455.03 811.72 403.84 812.32 404.91 724.29 456.1"/>
    <polygon points="727.34 458.03 726.73 456.96 814.76 405.77 815.37 406.84 727.34 458.03"/>
    <polygon points="730.76 459.79 730.15 458.73 818.18 407.54 818.79 408.61 730.76 459.79"/>
    <polygon points="733.8 461.72 733.2 460.65 821.23 409.47 821.83 410.54 733.8 461.72"/>
  </g>
  <g class="cls-6">
    <polygon points="1082.98 664.12 1082.37 663.05 1170.4 611.87 1171 612.93 1082.98 664.12"/>
    <polygon points="1086.33 665.93 1085.73 664.86 1173.75 613.67 1174.36 614.74 1086.33 665.93"/>
    <polygon points="1089.37 667.86 1088.77 666.79 1176.8 615.6 1177.4 616.67 1089.37 667.86"/>
    <polygon points="1092.8 669.62 1092.19 668.56 1180.22 617.37 1180.82 618.44 1092.8 669.62"/>
    <polygon points="1095.62 671.61 1095.01 670.54 1183.04 619.36 1183.65 620.42 1095.62 671.61"/>
    <polygon points="1098.97 673.42 1098.37 672.35 1186.4 621.16 1187 622.23 1098.97 673.42"/>
    <polygon points="1102.02 675.35 1101.41 674.28 1189.44 623.09 1190.05 624.16 1102.02 675.35"/>
    <polygon points="1105.44 677.11 1104.83 676.05 1192.86 624.86 1193.47 625.93 1105.44 677.11"/>
    <polygon points="1108.48 679.04 1107.88 677.97 1195.91 626.79 1196.51 627.86 1108.48 679.04"/>
    <polygon points="1111.89 680.84 1111.29 679.78 1199.32 628.59 1199.92 629.66 1111.89 680.84"/>
    <polygon points="1114.94 682.77 1114.33 681.7 1202.36 630.52 1202.97 631.59 1114.94 682.77"/>
    <polygon points="1118.36 684.54 1117.75 683.47 1205.78 632.29 1206.39 633.35 1118.36 684.54"/>
    <polygon points="1121.18 686.53 1120.57 685.46 1208.6 634.27 1209.21 635.34 1121.18 686.53"/>
    <polygon points="1124.54 688.33 1123.93 687.27 1211.96 636.08 1212.56 637.15 1124.54 688.33"/>
    <polygon points="1127.58 690.26 1126.97 689.19 1215 638.01 1215.61 639.08 1127.58 690.26"/>
    <polygon points="1131 692.03 1130.4 690.96 1218.42 639.78 1219.03 640.84 1131 692.03"/>
    <polygon points="1038.13 638.12 1037.52 637.05 1125.55 585.87 1126.16 586.93 1038.13 638.12"/>
    <polygon points="1041.55 639.89 1040.94 638.82 1128.97 587.63 1129.58 588.7 1041.55 639.89"/>
    <polygon points="1044.37 641.88 1043.76 640.81 1131.79 589.62 1132.4 590.69 1044.37 641.88"/>
    <polygon points="1047.73 643.68 1047.12 642.62 1135.15 591.43 1135.76 592.5 1047.73 643.68"/>
    <polygon points="1050.77 645.61 1050.16 644.54 1138.19 593.36 1138.8 594.42 1050.77 645.61"/>
    <polygon points="1054.19 647.38 1053.59 646.31 1141.61 595.12 1142.22 596.19 1054.19 647.38"/>
    <polygon points="1057.24 649.31 1056.63 648.24 1144.66 597.05 1145.26 598.12 1057.24 649.31"/>
    <polygon points="1060.65 651.11 1060.04 650.04 1148.07 598.85 1148.68 599.92 1060.65 651.11"/>
    <polygon points="1063.69 653.04 1063.08 651.97 1151.11 600.78 1151.72 601.85 1063.69 653.04"/>
    <polygon points="1067.11 654.81 1066.51 653.74 1154.53 602.55 1155.14 603.62 1067.11 654.81"/>
    <polygon points="1069.93 656.79 1069.33 655.72 1157.35 604.54 1157.96 605.61 1069.93 656.79"/>
    <polygon points="1073.29 658.6 1072.68 657.53 1160.71 606.34 1161.32 607.41 1073.29 658.6"/>
    <polygon points="1076.33 660.53 1075.73 659.46 1163.75 608.27 1164.36 609.34 1076.33 660.53"/>
    <polygon points="1079.75 662.3 1079.15 661.23 1167.18 610.04 1167.78 611.11 1079.75 662.3"/>
    <polygon points="1082.8 664.22 1082.19 663.16 1170.22 611.97 1170.83 613.04 1082.8 664.22"/>
  </g>
  <g class="cls-13">
    <path class="cls-8" d="M977.87,313.35c-2.27-9.16-7.11-17.55-13.9-24.05-9.07-8.69-17.71-10.64-23.4-7.4h0s-7.96,4.93-7.96,4.93l2.04,3.5c-.51,1.91-.81,4.05-.81,6.45,0,14.61,10.15,32.39,22.68,39.7,2.28,1.33,4.48,2.21,6.56,2.69l1.7,2.92c.19.33.61.43.93.23l7.76-4.88c5.11-3.74,7.37-12.15,4.41-24.1"/>
    <path d="M965.35,343.49c-.14,0-.28-.02-.42-.05-.45-.11-.83-.4-1.07-.81l-1.47-2.52c-2.1-.54-4.26-1.44-6.41-2.7-12.8-7.47-23.21-25.69-23.21-40.62,0-2.21.25-4.32.73-6.29l-2.34-4.02,9.26-5.74h.04c6.54-3.39,15.56-.51,24.23,7.79,6.95,6.66,11.86,15.15,14.19,24.56,2.85,11.5,1.05,20.93-4.81,25.22l-7.82,4.92c-.28.17-.59.26-.91.26M934.05,287.19l1.74,2.99-.12.43c-.51,1.92-.77,3.99-.77,6.17,0,14.25,9.93,31.64,22.15,38.77,2.12,1.24,4.23,2.11,6.27,2.58l.44.1,1.72,2.97,7.42-4.66c5.08-3.72,6.57-12.31,3.94-22.93h0c-2.23-9.02-6.93-17.15-13.59-23.53-8.15-7.8-16.42-10.51-22.16-7.24l-.08.05-6.97,4.31Z"/>
    <path class="cls-8" d="M950.24,305.19l-5.21,3.44s-.57,8.07-1.11,16.05c3.6,4.91,7.93,9.08,12.59,11.8,2.28,1.33,4.48,2.21,6.56,2.69l1.48,2.54c.31.53.99.7,1.51.38l7.39-4.65c3.55-2.6,5.73-7.46,5.73-14.2,0-8.91-3.79-18.98-9.57-27.15l-10.91,6.07-8.47,3.02Z"/>
    <path d="M965.5,343.32c-.17,0-.35-.02-.52-.06-.57-.14-1.04-.5-1.34-1.01l-1.25-2.15c-2.1-.54-4.25-1.45-6.41-2.7-4.63-2.7-9.09-6.88-12.91-12.09l-.23-.32.03-.39c.54-7.98,1.11-16.06,1.11-16.06l.04-.53,5.87-3.84,8.39-2.99,11.66-6.49.55.77c6.12,8.64,9.77,19.02,9.77,27.78,0,6.8-2.19,12.15-6.17,15.06l-7.46,4.69c-.34.22-.73.33-1.13.33M945,324.35c3.59,4.83,7.75,8.7,12.04,11.2,2.12,1.24,4.23,2.11,6.27,2.58l.44.1,1.71,2.94,7.44-4.63c3.35-2.45,5.23-7.19,5.23-13.29,0-8.07-3.29-17.63-8.83-25.76l-10.24,5.68-8.35,2.98-4.67,3.08c-.13,1.88-.6,8.49-1.04,15.12"/>
    <path d="M976.9,310.42l-8.19,4.56-8.47,3.02-5.21,3.44s-.45,6.42-.93,13.46c.79.56,1.6,1.1,2.41,1.58,2.28,1.33,4.48,2.21,6.56,2.69l1.64,2.81c.22.38.71.5,1.09.27l7.66-4.81c3.55-2.6,5.73-7.46,5.73-14.2,0-4.13-.84-8.5-2.29-12.82"/>
    <path d="M965.39,343.45c-.15,0-.3-.02-.44-.06-.49-.12-.89-.43-1.15-.86l-1.41-2.42c-2.1-.54-4.26-1.44-6.41-2.7-.75-.44-1.54-.95-2.49-1.62l-.49-.35.04-.6c.48-7.05.93-13.47.93-13.47l.04-.53,5.88-3.84,8.38-2.99,9.22-5.13.4,1.21c1.56,4.64,2.35,9.08,2.35,13.17,0,6.8-2.19,12.15-6.17,15.06l-7.72,4.86c-.3.18-.63.28-.97.28M955.19,334.37c.69.47,1.28.85,1.85,1.18,2.12,1.24,4.23,2.11,6.27,2.58l.45.1,1.73,2.96,7.42-4.66c3.35-2.46,5.23-7.19,5.23-13.29,0-3.5-.62-7.29-1.84-11.27l-7.23,4.01-8.34,2.98-4.67,3.08c-.11,1.61-.47,6.71-.85,12.33"/>
    <path class="cls-8" d="M971.56,327.98c0,14.62-10.15,20.54-22.68,13.23-12.52-7.31-22.67-25.08-22.67-39.7s10.15-20.54,22.67-13.23c12.52,7.31,22.68,25.08,22.68,39.69"/>
    <path d="M959.01,345.42c-3.29,0-6.92-1.1-10.66-3.28-12.79-7.47-23.2-25.69-23.2-40.62,0-7.47,2.55-13.06,7.17-15.76,4.62-2.7,10.69-2.13,17.09,1.61,12.8,7.46,23.2,25.69,23.2,40.62,0,7.47-2.55,13.06-7.17,15.76-1.92,1.12-4.09,1.68-6.43,1.68M938.76,286.21c-1.98,0-3.79.46-5.38,1.39-3.94,2.3-6.11,7.24-6.11,13.91,0,14.25,9.93,31.65,22.15,38.77,5.71,3.33,11.03,3.91,14.98,1.61,3.94-2.3,6.11-7.24,6.11-13.91,0-14.25-9.93-31.64-22.15-38.77-3.41-1.99-6.67-3-9.59-3"/>
    <path d="M963.92,323.53c0,9.7-6.74,13.63-15.04,8.78-8.31-4.85-15.04-16.64-15.04-26.33s6.74-13.63,15.04-8.78c8.31,4.85,15.04,16.64,15.04,26.33"/>
    <path d="M955.6,335.46c-2.25,0-4.71-.75-7.25-2.23-8.59-5.01-15.57-17.24-15.57-27.26,0-5.09,1.75-8.91,4.93-10.77,3.18-1.85,7.34-1.48,11.69,1.07,8.58,5.01,15.57,17.24,15.57,27.26,0,5.09-1.75,8.91-4.93,10.77-1.33.78-2.83,1.16-4.45,1.16M942.17,296.18c-1.25,0-2.39.29-3.39.87-2.5,1.46-3.88,4.63-3.88,8.92,0,9.34,6.51,20.74,14.51,25.41,3.68,2.15,7.08,2.52,9.58,1.07,2.5-1.46,3.88-4.63,3.88-8.92,0-9.34-6.51-20.74-14.52-25.41-2.21-1.29-4.31-1.94-6.18-1.94"/>
    <path class="cls-8" d="M948.88,297.18c-2.49-1.45-4.83-2.1-6.9-2.06-1.85,1.84-2.95,4.79-2.95,8.69,0,9.7,6.73,21.49,15.04,26.34,2.49,1.45,4.83,2.1,6.9,2.06,1.85-1.84,2.95-4.79,2.95-8.69,0-9.7-6.73-21.49-15.04-26.34"/>
    <path d="M960.78,333.27c-2.29,0-4.72-.74-7.23-2.2-8.59-5.01-15.57-17.24-15.57-27.26,0-4.06,1.13-7.33,3.27-9.46l.3-.3h.42c2.32-.05,4.86.68,7.44,2.19,8.59,5.01,15.57,17.24,15.57,27.26,0,4.06-1.13,7.33-3.27,9.46l-.3.3h-.42c-.07.01-.14.01-.21.01M942.43,296.19c-1.54,1.73-2.35,4.35-2.35,7.62,0,9.34,6.51,20.74,14.52,25.41,2.05,1.2,4.09,1.85,5.92,1.91,1.54-1.73,2.35-4.35,2.35-7.62,0-9.34-6.51-20.74-14.52-25.41-2.05-1.2-4.09-1.86-5.92-1.91"/>
    <polygon class="cls-8" points="935.03 309.57 934.25 308.12 944.67 302.36 945.46 303.8 935.03 309.57"/>
    <polygon class="cls-8" points="948.16 331.26 947.38 329.82 957.8 324.05 958.59 325.49 948.16 331.26"/>
    <polygon class="cls-8" points="972.83 331.3 972.05 329.86 977.65 326.76 978.43 328.2 972.83 331.3"/>
    <path d="M990.19,594.07l-1.22-1.64c-1.87-4.64-5.9-2.39-12.1-6.01-17.76-10.36-46.54-10.36-64.3,0-6.2,3.62-10.23,4.74-12.1,9.38h-1.22v9.52h0c.06,6.74,4.49,13.48,13.31,18.62,17.76,10.36,46.54,10.36,64.3,0,8.91-5.2,13.34-12.01,13.31-18.83v-11.04Z"/>
    <path d="M944.72,632.74c-11.84,0-23.67-2.63-32.68-7.89-8.86-5.17-13.77-12.11-13.84-19.54v-10.6s1.58,0,1.58,0c1.66-3.49,4.56-5.04,8.48-7.14,1.15-.62,2.41-1.29,3.78-2.09,18.02-10.52,47.34-10.52,65.36,0,2.48,1.45,4.56,1.89,6.4,2.29,2.57.55,4.8,1.03,6.09,4.11l1.35,1.82v11.39c.03,7.51-4.89,14.52-13.85,19.75-9.01,5.26-20.85,7.89-32.68,7.89M900.31,605.3c.06,6.65,4.6,12.93,12.79,17.71,17.43,10.17,45.81,10.17,63.24,0,8.27-4.83,12.82-11.18,12.79-17.9v-10.69s-1.14-1.6-1.14-1.6c-.87-2.15-2.21-2.44-4.63-2.96-1.89-.41-4.25-.91-7.02-2.53-17.43-10.17-45.8-10.17-63.24,0-1.39.81-2.67,1.5-3.85,2.13-4.05,2.17-6.49,3.48-7.8,6.73l-.27.67h-.87v8.25l-1.06.2h1.06Z"/>
    <path class="cls-8" d="M958.07,607.43c-1.87-4.64-5.9-9.04-12.1-12.66-9.44-5.51-22.01-8.06-34.38-7.71-2.68,1.66-4.92,2.35-6.73,3.07.26,1.61.37,3.35.3,5.25-.28,7.43-.03,13.21.49,17.72.52,4.49,2.98,8.56,6.85,10.83.02.01.04.02.07.04,9.45,5.51,22.03,8.06,34.4,7.71,8.23-5.11,12.34-11.66,12.32-18.21v-6.03s-1.22,0-1.22,0Z"/>
    <path d="M944.73,632.77c-12.23,0-24.03-2.83-32.69-7.88-4.11-2.41-6.86-6.75-7.43-11.66-.59-5.03-.76-11.05-.5-17.88.07-1.76-.03-3.45-.28-5.04l-.14-.85.79-.32c.38-.15.77-.3,1.18-.46,1.57-.59,3.34-1.27,5.38-2.53l.24-.15h.28c12.99-.39,25.75,2.48,34.94,7.84,5.91,3.45,10.14,7.77,12.27,12.52h1.58v7.1c.03,7.17-4.52,13.97-12.82,19.12l-.24.15h-.28c-.76.03-1.51.04-2.27.04M906.03,590.82c.18,1.47.25,3.01.19,4.6-.25,6.72-.09,12.63.49,17.55.49,4.25,2.86,8,6.33,10.03,8.86,5.17,21.12,7.93,33.62,7.61,7.49-4.73,11.6-10.81,11.57-17.15v-4.97s-.87,0-.87,0l-.27-.67c-1.84-4.57-5.87-8.77-11.65-12.14-8.79-5.13-21.02-7.9-33.54-7.57-2.12,1.28-3.99,1.99-5.5,2.56-.12.05-.25.1-.37.14"/>
    <path class="cls-8" d="M976.87,575.31c17.76,10.36,17.76,27.16,0,37.52-17.76,10.36-46.55,10.36-64.3,0-17.76-10.36-17.76-27.16,0-37.52,17.76-10.36,46.54-10.36,64.3,0"/>
    <path d="M944.72,621.64c-11.84,0-23.67-2.63-32.68-7.89-8.93-5.21-13.85-12.2-13.85-19.68s4.92-14.48,13.85-19.68c18.02-10.52,47.34-10.51,65.36,0,8.93,5.21,13.85,12.2,13.85,19.68s-4.92,14.48-13.85,19.68c-9.01,5.26-20.85,7.89-32.68,7.89M944.72,568.6c-11.45,0-22.91,2.54-31.62,7.63-8.25,4.81-12.79,11.15-12.79,17.83s4.54,13.02,12.79,17.84c17.43,10.17,45.81,10.18,63.24,0,8.25-4.81,12.79-11.15,12.79-17.84s-4.54-13.02-12.79-17.83c-8.72-5.09-20.17-7.63-31.62-7.63"/>
    <path class="cls-8" d="M972.69,571.4c15.45,9.02,15.45,23.63,0,32.65-15.45,9.01-40.5,9.01-55.95,0-15.45-9.02-15.45-23.63,0-32.65,15.45-9.01,40.5-9.01,55.95,0"/>
    <path d="M944.72,611.85c-10.32,0-20.64-2.29-28.5-6.88-7.81-4.56-12.11-10.68-12.11-17.25s4.3-12.69,12.11-17.25c15.72-9.17,41.29-9.17,57,0,7.81,4.56,12.11,10.68,12.11,17.25s-4.3,12.69-12.12,17.25c-7.86,4.58-18.18,6.88-28.5,6.88M944.72,565.7c-9.94,0-19.88,2.21-27.44,6.62-7.13,4.16-11.06,9.63-11.06,15.4s3.93,11.24,11.06,15.4c15.13,8.83,39.76,8.83,54.89,0,7.13-4.16,11.06-9.63,11.06-15.4s-3.93-11.24-11.06-15.4c-7.57-4.41-17.51-6.62-27.44-6.62"/>
    <path class="cls-8" d="M966.13,628.22l-.93-1.34c.05-.04,5.62-4.07,8.38-11.84l1.53.55c-2.94,8.28-8.73,12.46-8.97,12.63"/>
    <path class="cls-8" d="M968.85,580.6l-.15-.31s-11.33-17.99-11.63-35.61h-24.7s-1.53,19.52-11.63,35.61l-.15.31c-2.79,5.08-.59,10.55,6.31,14.58,9.84,5.74,25.79,5.74,35.63,0,6.91-4.03,9.1-9.51,6.31-14.59"/>
    <path d="M944.72,600.54c-6.64,0-13.28-1.48-18.34-4.43-7.25-4.23-9.82-10.37-6.71-16.02l.12-.25c9.91-15.8,11.52-35.05,11.53-35.24l.08-.98h26.72l.02,1.05c.28,17.1,11.35,34.88,11.46,35.06l.19.38c3.1,5.65.53,11.79-6.71,16.01-5.06,2.95-11.7,4.43-18.34,4.43M933.33,545.75c-.45,4.22-2.74,20.85-11.7,35.12l-.08.2c-2.59,4.72-.44,9.51,5.89,13.2,9.53,5.56,25.04,5.56,34.57,0,6.32-3.69,8.48-8.48,5.91-13.14l-.17-.36c-.4-.63-11.01-17.65-11.7-35.01h-22.71Z"/>
    <path d="M968.7,580.66s-11.33-17.99-11.63-35.61h-10.47v7.79s.4,16.89,5.88,46.29c3.67-.69,7.14-1.88,10.05-3.58,6.91-4.03,9.1-9.51,6.31-14.58l-.15-.31Z"/>
    <path class="cls-8" d="M953.58,539.87c4.9,2.86,4.9,7.49,0,10.35-4.9,2.86-12.83,2.86-17.73,0s-4.9-7.49,0-10.35c4.9-2.86,12.83-2.86,17.73,0"/>
    <path d="M944.72,553.41c-3.4,0-6.8-.76-9.39-2.27-2.71-1.58-4.2-3.74-4.2-6.1s1.49-4.52,4.2-6.1c5.18-3.02,13.61-3.02,18.78,0,2.71,1.58,4.2,3.75,4.2,6.1s-1.49,4.52-4.2,6.1c-2.59,1.51-5.99,2.27-9.39,2.27M944.72,538.78c-3.02,0-6.04.67-8.34,2.01-2.03,1.18-3.14,2.69-3.14,4.25s1.12,3.07,3.14,4.25c4.6,2.68,12.07,2.68,16.67,0,2.03-1.18,3.14-2.69,3.14-4.25s-1.12-3.07-3.14-4.25c-2.3-1.34-5.32-2.01-8.33-2.01"/>
    <path class="cls-8" d="M961.86,581.16c-7.34-13.95-8.77-28.58-8.78-28.73l1.62-.15c.01.14,1.42,14.46,8.6,28.11l-1.43.77Z"/>
  </g>
  <g class="cls-2">
    <rect class="cls-18" x="936.79" y="317.85" width="15.86" height="230.4"/>
  </g>
  <g class="cls-3">
    <path d="M944.72,548.88c-2.21,0-4.41-.5-6.13-1.51-1.84-1.07-2.85-2.56-2.85-4.2v-226.39l17.96.02v226.34c0,1.64-1,3.14-2.85,4.22-1.72,1-3.93,1.51-6.13,1.51M937.85,318.92v224.25c0,.83.65,1.68,1.79,2.35,2.75,1.61,7.4,1.61,10.15,0,1.15-.67,1.8-1.53,1.79-2.36v-224.23l-13.73-.02Z"/>
    <path d="M946.51,547.73c1.4-.19,2.73-.59,3.81-1.22,1.55-.91,2.33-2.1,2.32-3.29v-225.29h-6.13s0,229.8,0,229.8Z"/>
    <path d="M945.45,548.95v-232.09h8.25v226.36c0,1.64-1,3.14-2.85,4.21-1.15.67-2.6,1.14-4.2,1.36l-1.2.16ZM947.57,318.99v227.45c.84-.21,1.6-.5,2.23-.86,1.15-.67,1.8-1.53,1.79-2.36v-224.23h-4.02Z"/>
    <path class="cls-8" d="M950.32,314.58c3.09,1.81,3.09,4.74,0,6.54-3.1,1.81-8.11,1.81-11.21,0-3.09-1.8-3.09-4.73,0-6.54,3.09-1.81,8.11-1.81,11.21,0"/>
    <path d="M944.72,323.55c-2.21,0-4.41-.5-6.13-1.5-1.84-1.07-2.85-2.56-2.85-4.2s1.01-3.12,2.85-4.19c3.44-2.01,8.83-2.01,12.27,0,1.84,1.07,2.85,2.56,2.85,4.19s-1.01,3.12-2.85,4.2c-1.72,1-3.93,1.5-6.13,1.5M944.72,314.3c-1.85,0-3.7.4-5.08,1.21-1.14.67-1.79,1.52-1.79,2.34s.65,1.68,1.79,2.35c2.75,1.6,7.4,1.6,10.15,0,1.14-.67,1.79-1.52,1.79-2.35s-.65-1.68-1.79-2.34c-1.38-.8-3.23-1.21-5.08-1.21"/>
    <rect class="cls-8" x="948.76" y="527.22" width="1.63" height="14.78"/>
    <rect class="cls-8" x="948.76" y="323.79" width="1.63" height="91.18"/>
    <rect class="cls-8" x="948.76" y="420.44" width="1.63" height="9.85"/>
    <path class="cls-17" d="M952.64,312.64v-102.85c0-.28-.23-.52-.51-.52l-14.83-.02c-.28,0-.51.23-.51.52v102.88c0,1.72,1.63,3.44,4.89,4.3,1.98.52,4.09.52,6.07,0,3.27-.86,4.9-2.59,4.89-4.32"/>
    <path class="cls-4" d="M952.64,312.64v-102.85c0-.28-.23-.52-.51-.52l-14.83-.02c-.28,0-.51.23-.51.52v102.88c0,1.72,1.63,3.44,4.89,4.3,1.98.52,4.09.52,6.07,0,3.27-.86,4.9-2.59,4.89-4.32Z"/>
    <path d="M944.72,318.41c-1.11,0-2.22-.14-3.3-.43-3.56-.94-5.68-2.93-5.68-5.33v-102.88c0-.87.7-1.58,1.57-1.58l14.83.02c.86,0,1.57.71,1.57,1.58v102.85c.01,2.41-2.11,4.41-5.68,5.35-1.08.28-2.19.43-3.3.43M937.85,210.33v102.33c0,1.32,1.61,2.61,4.1,3.26,1.81.48,3.72.48,5.54,0,2.5-.66,4.11-1.94,4.1-3.27v-102.3l-13.74-.02Z"/>
    <path d="M946.51,317.21c1.4-.19,2.73-.59,3.81-1.22,1.56-.91,2.33-2.1,2.32-3.29v-103.08c0-.15-.12-.28-.28-.28h-5.86s0,107.87,0,107.87Z"/>
    <path d="M945.45,318.43v-110.17h6.91c.73,0,1.33.61,1.33,1.36v103.08c0,1.64-1,3.14-2.85,4.21-1.15.67-2.6,1.14-4.2,1.36l-1.2.16ZM947.57,210.4v105.53c.84-.21,1.6-.5,2.23-.86,1.14-.67,1.8-1.53,1.79-2.36v-102.3h-4.02Z"/>
    <path class="cls-8" d="M950.32,205.99c3.09,1.81,3.09,4.73,0,6.54-3.1,1.81-8.11,1.81-11.21,0-3.09-1.81-3.09-4.73,0-6.54,3.09-1.81,8.11-1.81,11.21,0"/>
    <path d="M944.72,214.96c-2.21,0-4.41-.5-6.13-1.51-1.84-1.07-2.85-2.56-2.85-4.19s1.01-3.12,2.85-4.2c3.44-2,8.83-2,12.27,0,1.84,1.07,2.85,2.56,2.85,4.2s-1.01,3.12-2.85,4.19c-1.72,1-3.93,1.51-6.13,1.51M944.72,205.71c-1.85,0-3.7.4-5.08,1.2-1.14.66-1.79,1.52-1.79,2.35s.65,1.68,1.79,2.34c2.75,1.6,7.4,1.6,10.15,0,1.14-.66,1.79-1.52,1.79-2.34s-.65-1.68-1.79-2.35c-1.37-.8-3.23-1.2-5.08-1.2"/>
    <rect class="cls-8" x="948.76" y="215.19" width="1.63" height="79.88"/>
    <path class="cls-17" d="M954.2,209.11l-7.94-18.26c-.59-1.35-2.49-1.35-3.08,0l-7.94,18.26c-.94,2.47.93,5.22,5.71,6.5,2.46.66,5.09.66,7.55,0,4.78-1.27,6.65-4.03,5.71-6.5"/>
    <path class="cls-4" d="M954.2,209.11l-7.94-18.26c-.59-1.35-2.49-1.35-3.08,0l-7.94,18.26c-.94,2.47.93,5.22,5.71,6.5,2.46.66,5.09.66,7.55,0,4.78-1.27,6.65-4.03,5.71-6.5Z"/>
    <path d="M944.72,217.17c-1.36,0-2.72-.18-4.04-.53-3.06-.82-5.27-2.3-6.22-4.18-.61-1.2-.68-2.49-.21-3.74l7.96-18.31c.44-1.02,1.4-1.65,2.51-1.65s2.06.63,2.51,1.65l7.96,18.31c.47,1.24.4,2.53-.21,3.73-.95,1.88-3.16,3.36-6.21,4.18-1.32.35-2.69.53-4.05.53M944.72,190.9c-.12,0-.42.04-.57.38l-7.94,18.26c-.23.62-.2,1.29.14,1.95.66,1.31,2.44,2.44,4.87,3.09,2.29.61,4.72.61,7.01,0,2.43-.65,4.21-1.77,4.87-3.09.33-.65.37-1.32.13-1.98l-7.93-18.24c-.15-.34-.45-.38-.57-.38"/>
    <path d="M947.07,215.91c5.25-1.19,8.11-4.21,7.13-6.79l-7.94-18.27c-.3-.68-.92-1.01-1.54-1.01l2.35,26.07Z"/>
    <polygon class="cls-8" points="951.1 211.27 948.39 202.17 949.95 201.7 952.66 210.8 951.1 211.27"/>
    <path d="M1095.63,392.05h0l5.21,3.04c1.78,1.04,3.24,3.59,3.24,5.67,0,7.72,5.09,17.37,11.7,21.52,5.77,3.62,4.24,5.11,5.73-.14.52-1.82,8.52-5.64,10.41-4.63,2.8,1.51,4.99,5.81,4.29,8.53-2.38,9.34-13.81,18.62-23.84,12.19-8.77-5.62-12.13-7.5-14.73-18.37-.34-1.42-2.24-18.63-3.34-19.28l-42.76-24.95c-10.6-6.18-21.17-11.11-31.55-14.72l-24.37-8.46c-10.39-3.61-20.96-8.54-31.55-14.72l-16.81-23.81c-.07-.09-.04-.22.06-.28l6.77-4.08c.06-.04.13-.04.19,0l141.37,82.49Z"/>
    <path d="M1119.42,441.44c-2.65,0-5.22-.77-7.62-2.31l-.75-.48c-8.36-5.35-11.82-7.57-14.45-18.54-.1-.43-.28-1.75-.61-4.26-.52-3.91-1.72-12.94-2.42-14.46l-42.58-24.85c-10.51-6.13-21.06-11.06-31.36-14.63l-24.37-8.46c-10.43-3.62-21.11-8.6-31.74-14.8l-.2-.12-17.22-24.38.07-.61c.07-.34.28-.64.58-.82l6.77-4.08c.39-.24.87-.24,1.26,0l146.57,85.53c2.11,1.23,3.77,4.13,3.77,6.6,0,7.49,5.02,16.73,11.2,20.61,1.78,1.11,2.87,2.03,3.6,2.63.02-.07.03-.14.05-.21.13-.51.28-1.15.51-1.95.55-1.95,4.96-3.93,5.84-4.31,2-.86,4.68-1.72,6.08-.97,3.24,1.74,5.62,6.57,4.82,9.74-1.55,6.08-6.46,11.71-12.22,14.01-1.88.75-3.75,1.12-5.59,1.12M964.78,336.92c10.45,6.08,20.93,10.97,31.17,14.52l24.37,8.46c10.43,3.62,21.11,8.6,31.74,14.8l42.76,24.95c.88.52,1.43,2.1,3.27,15.91.25,1.9.49,3.7.57,4.04,2.42,10.13,5.45,12.07,13.52,17.24l.75.48c4.38,2.81,8.56,2.1,11.3,1.01,5.08-2.03,9.59-7.2,10.95-12.56.57-2.22-1.4-6.05-3.77-7.32-.18-.09-1.23-.14-3.52.74-2.88,1.11-5.15,2.69-5.38,3.25-.21.75-.36,1.37-.48,1.85-.31,1.29-.49,1.99-1.27,2.25-.78.26-1.33-.21-2.17-.9-.68-.57-1.71-1.42-3.37-2.47-6.84-4.29-12.2-14.14-12.2-22.42,0-1.68-1.27-3.9-2.71-4.75l-146.14-85.27-5.53,3.33,16.14,22.85Z"/>
    <path class="cls-8" d="M1088.59,396.29h0l5.21,3.04c1.78,1.04,3.24,3.59,3.24,5.67,0,7.72,5.09,17.37,11.7,21.52,5.77,3.62,10.69,2.04,12.18-3.21.52-1.82,2.07-2.57,3.96-1.56,2.8,1.5,4.99,5.81,4.29,8.53-2.38,9.34-10.96,12.18-21,5.75-8.76-5.62-15.9-16.88-18.5-27.75-.34-1.42-1.32-2.82-2.42-3.46l-42.76-24.95c-10.6-6.18-21.16-11.11-31.55-14.72l-24.37-8.46c-10.39-3.61-20.96-8.54-31.55-14.72l-9.8-5.72c-.06-.03-.09-.1-.09-.17v-22.01c0-.15.16-.24.28-.17l141.18,82.38Z"/>
    <path d="M1118.4,440.56c-3.34,0-7.05-1.23-10.81-3.64-8.73-5.6-16.17-16.74-18.96-28.4-.27-1.14-1.06-2.28-1.92-2.78l-42.76-24.95c-10.52-6.14-21.07-11.06-31.36-14.63l-24.37-8.46c-10.43-3.62-21.11-8.6-31.74-14.8l-9.8-5.72c-.38-.22-.62-.64-.62-1.09v-22.01c0-.45.24-.87.62-1.09.38-.22.86-.23,1.25,0l146.39,85.42c2.11,1.23,3.77,4.13,3.77,6.6,0,7.49,5.02,16.73,11.2,20.61,2.72,1.71,5.32,2.22,7.32,1.45,1.58-.62,2.72-2.01,3.29-4.04.34-1.21,1.07-2.1,2.05-2.53,1.02-.44,2.23-.32,3.42.32,3.24,1.74,5.62,6.57,4.82,9.74-1.15,4.5-3.75,7.76-7.33,9.19-1.38.55-2.88.83-4.45.83M948.18,335.58l9.36,5.46c10.51,6.14,21.07,11.06,31.37,14.64l24.37,8.46c10.42,3.62,21.1,8.6,31.74,14.8l42.76,24.95c1.36.8,2.51,2.42,2.92,4.13,2.63,10.98,9.88,21.86,18.04,27.1,4.93,3.16,9.67,4.1,13.35,2.63,2.98-1.19,5.07-3.87,6.06-7.74.56-2.22-1.41-6.05-3.77-7.32-.44-.24-1.07-.46-1.6-.24-.49.21-.73.74-.84,1.15-.75,2.66-2.37,4.6-4.56,5.45-2.63,1.03-5.9.45-9.19-1.62-6.84-4.29-12.2-14.14-12.2-22.42,0-1.69-1.27-3.9-2.71-4.75l-145.09-84.66v19.98Z"/>
    <polygon points="973.74 341.32 956 330.97 957.05 329.12 974.79 339.47 973.74 341.32"/>
    <polygon class="cls-8" points="963.25 322.47 962.39 321.08 967.53 317.8 968.4 319.19 963.25 322.47"/>
    <polygon class="cls-8" points="1075.19 387.64 1074.33 386.25 1079.47 382.97 1080.34 384.35 1075.19 387.64"/>
    <polygon class="cls-8" points="1097.09 400.98 1096.22 399.59 1101.37 396.3 1102.23 397.69 1097.09 400.98"/>
    <polygon class="cls-8" points="1129.73 425.11 1128.86 423.73 1134.01 420.44 1134.87 421.83 1129.73 425.11"/>
    <path d="M791.39,214.13h0l-5.21-3.04c-1.79-1.04-10.14,3.07-10.14,5.16l1.17,1.26c0,7.72.64,6.89-5.97,3.33-5.77-3.11-10.69-10.44-12.18-17.43-.52-2.42-2.07-4.99-3.96-6.17-2.79-1.76-11.7,2.37-11.01,5.9,2.38,12.12,12.87,27.86,22.9,33.14,8.77,4.61,20.71-3.59,23.31-11.43.34-1.03,1.32-1.27,2.42-.63l42.76,24.95c10.6,6.18,21.16,13.59,31.55,22.1l24.37,19.98c10.2,8.36,23.33,25.32,33.84,31.78.35.21.78.21,1.13,0l5.94-3.58c.33-.2.54-.56.54-.95v-21.18c0-.4-.21-.76-.55-.96l-140.92-82.23Z"/>
    <path d="M925.8,324.26c-.38,0-.77-.1-1.1-.31-6.25-3.84-13.33-11.25-20.18-18.41-4.92-5.15-9.57-10.01-13.77-13.45l-24.37-19.98c-10.32-8.46-20.89-15.87-31.41-22.01l-42.76-24.95c-.36-.21-.62-.23-.73-.19-.08.03-.13.15-.16.24-1.64,4.94-6.55,9.81-12.23,12.13-4.51,1.84-8.97,1.8-12.58-.09-9.98-5.25-20.94-21.08-23.45-33.88-.33-1.68.72-3.47,2.97-5.04,2.91-2.03,7.42-3.37,9.63-1.98,2.05,1.29,3.83,4.05,4.43,6.86,1.45,6.83,6.35,13.86,11.65,16.71.89.48,1.65.91,2.3,1.28.79.45,1.6.91,2.08,1.11.07-.59.06-1.72.05-2.9v-1.45s-1.18-1.27-1.18-1.27v-.42c0-1.23,1.26-2.59,3.74-4.04.23-.14,5.77-3.34,7.98-2.05l146.12,85.27c.66.39,1.08,1.11,1.08,1.89v21.18c0,.76-.4,1.48-1.05,1.87l-5.93,3.58c-.35.21-.74.31-1.12.31M791.58,222.81c.54,0,1.11.17,1.68.5l42.76,24.95c10.62,6.2,21.28,13.66,31.69,22.2l24.37,19.98c4.3,3.52,8.99,8.43,13.96,13.63,6.76,7.07,13.74,14.37,19.76,18.07l5.98-3.59.02-21.22-146.14-85.3c-.36-.15-2.28.16-4.99,1.57-1.98,1.03-3.02,1.94-3.4,2.42l1.01,1.09v2.28c.03,3.05.04,4.32-.98,4.93-1.01.6-2.03.01-4.28-1.26-.64-.36-1.38-.79-2.26-1.26-5.89-3.18-11.12-10.64-12.72-18.15-.48-2.25-1.91-4.5-3.48-5.49-1.09-.68-4.59.02-7.31,1.92-1.45,1.01-2.25,2.11-2.1,2.87,2.41,12.26,12.86,27.4,22.35,32.4,3.91,2.06,8.04,1.14,10.81,0,5.05-2.06,9.58-6.51,11.01-10.82.25-.75.75-1.3,1.42-1.56.27-.1.56-.15.86-.15"/>
    <path class="cls-8" d="M784.34,218.38h0l-5.21-3.04c-1.78-1.04-3.24-.19-3.24,1.89,0,7.72-5.09,11.43-11.7,7.86-5.77-3.11-10.69-10.44-12.18-17.43-.52-2.42-2.07-4.99-3.96-6.17-2.79-1.76-4.99-.01-4.29,3.52,2.38,12.12,10.97,24.97,21,30.25,8.77,4.61,15.9,1.67,18.5-6.16.34-1.02,1.32-1.27,2.42-.63l42.76,24.95c10.6,6.18,21.16,13.59,31.55,22.1l24.37,19.98c10.39,8.52,20.96,15.92,31.55,22.1l8.24,4.81c.73.43,1.65-.11,1.65-.96v-19.89c0-.4-.21-.76-.55-.96l-140.92-82.23Z"/>
    <path d="M924.71,323.63c-.37,0-.74-.1-1.08-.29l-8.24-4.81c-10.62-6.2-21.28-13.67-31.69-22.2l-24.37-19.98c-10.32-8.46-20.89-15.86-31.41-22.01l-42.76-24.95c-.36-.21-.61-.23-.73-.19-.08.03-.13.15-.16.24-1.34,4.03-3.8,6.88-7.11,8.23-3.72,1.52-8.17,1.01-12.88-1.46-9.99-5.25-19.05-18.29-21.55-30.99-.43-2.17.09-4.01,1.39-4.92,1.22-.85,2.86-.75,4.49.28,2.05,1.29,3.84,4.05,4.43,6.86,1.45,6.83,6.35,13.86,11.65,16.71,2.68,1.44,5.16,1.62,6.99.51,2-1.22,3.15-3.92,3.15-7.43,0-1.38.54-2.49,1.48-3.04.94-.55,2.16-.47,3.34.22l146.12,85.27c.66.39,1.08,1.11,1.08,1.89v19.89c0,.79-.4,1.49-1.08,1.89-.34.2-.71.29-1.08.29M784.54,227.05c.54,0,1.11.17,1.67.5l42.76,24.95c10.62,6.2,21.28,13.67,31.69,22.2l24.37,19.98c10.32,8.46,20.89,15.86,31.41,22.01l8.24,4.81.06-19.92-146.14-85.3c-.51-.29-.96-.37-1.23-.22-.27.15-.42.6-.42,1.19,0,4.28-1.52,7.66-4.18,9.27-2.5,1.51-5.72,1.35-9.08-.46-5.89-3.18-11.12-10.64-12.72-18.15-.48-2.25-1.91-4.51-3.48-5.49-.88-.55-1.69-.68-2.18-.34-.58.4-.77,1.46-.52,2.75,2.38,12.12,10.98,24.53,20.45,29.51,4.15,2.18,7.98,2.65,11.11,1.38,2.72-1.11,4.76-3.51,5.9-6.93.25-.75.75-1.3,1.42-1.56.27-.1.56-.15.86-.15"/>
    <polygon points="915.88 307.18 898.14 296.83 899.2 294.98 916.94 305.33 915.88 307.18"/>
    <polygon class="cls-8" points="753.69 208.96 752.82 207.57 757.97 204.28 758.84 205.67 753.69 208.96"/>
    <polygon class="cls-8" points="926.79 301.1 925.93 299.71 931.07 296.43 931.94 297.82 926.79 301.1"/>
    <polygon class="cls-8" points="795.47 224.39 794.6 223 799.75 219.72 800.61 221.11 795.47 224.39"/>
    <polygon class="cls-8" points="905.01 287.67 904.14 286.28 909.29 282.99 910.16 284.38 905.01 287.67"/>
    <polygon class="cls-8" points="994.89 340.95 994.02 339.56 999.17 336.28 1000.04 337.67 994.89 340.95"/>
    <polygon class="cls-8" points="874.41 270.44 873.55 269.05 878.7 265.77 879.56 267.15 874.41 270.44"/>
    <path class="cls-8" d="M956.3,325.83c-2.27-9.16-7.11-17.55-13.9-24.05-9.07-8.69-17.71-10.64-23.4-7.4h0s-7.95,4.93-7.95,4.93l2.04,3.5c-.51,1.91-.81,4.05-.81,6.45,0,14.61,10.15,32.39,22.68,39.7,2.28,1.33,4.48,2.21,6.56,2.69l1.7,2.92c.19.33.61.43.93.23l7.76-4.88c5.11-3.74,7.37-12.15,4.41-24.1"/>
    <path d="M943.78,355.97c-.14,0-.28-.02-.42-.05-.46-.11-.84-.4-1.07-.81l-1.47-2.52c-2.1-.54-4.25-1.44-6.41-2.7-12.8-7.47-23.21-25.69-23.21-40.62,0-2.21.25-4.32.73-6.29l-2.34-4.02,9.26-5.74h.04c6.54-3.39,15.56-.51,24.23,7.79,6.95,6.66,11.86,15.15,14.19,24.56,2.85,11.5,1.05,20.93-4.81,25.22l-7.82,4.92c-.28.17-.59.26-.91.26M912.48,299.68l1.74,2.99-.12.43c-.51,1.92-.77,3.99-.77,6.17,0,14.25,9.93,31.64,22.15,38.77,2.12,1.24,4.23,2.11,6.27,2.58l.44.1,1.73,2.97,7.42-4.66c5.08-3.72,6.57-12.31,3.94-22.93h0c-2.23-9.02-6.93-17.15-13.6-23.53-8.14-7.8-16.42-10.51-22.16-7.24l-.08.04-6.97,4.31Z"/>
    <path class="cls-8" d="M928.67,317.67l-5.21,3.44s-.57,8.07-1.11,16.05c3.6,4.91,7.93,9.08,12.59,11.8,2.28,1.33,4.48,2.21,6.56,2.69l1.48,2.54c.31.53.99.7,1.51.38l7.39-4.65c3.55-2.6,5.73-7.46,5.73-14.2,0-8.91-3.79-18.98-9.57-27.15l-10.91,6.07-8.47,3.02Z"/>
    <path d="M943.93,355.81c-.17,0-.35-.02-.52-.06-.57-.14-1.04-.5-1.34-1.01l-1.25-2.15c-2.1-.54-4.25-1.45-6.41-2.7-4.62-2.7-9.09-6.88-12.91-12.09l-.23-.32.03-.39c.54-7.98,1.11-16.05,1.11-16.05l.04-.53,5.87-3.84,8.38-2.99,11.66-6.49.55.77c6.12,8.64,9.77,19.02,9.77,27.78,0,6.8-2.19,12.15-6.16,15.06l-7.46,4.69c-.34.22-.73.33-1.13.33M923.43,336.84c3.6,4.83,7.75,8.7,12.04,11.2,2.12,1.24,4.23,2.11,6.27,2.58l.44.1,1.71,2.94,7.44-4.63c3.35-2.45,5.23-7.19,5.23-13.29,0-8.07-3.29-17.63-8.83-25.76l-10.24,5.68-8.35,2.98-4.67,3.08c-.13,1.88-.59,8.49-1.04,15.12"/>
    <path d="M955.33,322.91l-8.19,4.56-8.47,3.02-5.21,3.44s-.45,6.42-.93,13.46c.79.56,1.6,1.1,2.41,1.58,2.28,1.33,4.48,2.21,6.56,2.69l1.64,2.81c.22.38.71.5,1.08.27l7.66-4.81c3.55-2.6,5.73-7.46,5.73-14.2,0-4.13-.84-8.5-2.29-12.82"/>
    <path d="M943.82,355.93c-.15,0-.3-.02-.44-.06-.49-.12-.89-.43-1.15-.86l-1.41-2.42c-2.1-.54-4.25-1.44-6.41-2.7-.76-.44-1.55-.96-2.49-1.63l-.49-.35.04-.6c.48-7.05.93-13.47.93-13.47l.04-.53,5.87-3.84,8.39-2.99,9.22-5.13.4,1.21c1.55,4.65,2.34,9.08,2.34,13.17,0,6.8-2.19,12.15-6.17,15.06l-7.72,4.86c-.3.18-.63.28-.97.28M933.63,346.86c.68.47,1.27.85,1.85,1.18,2.12,1.24,4.23,2.11,6.27,2.58l.44.1,1.73,2.96,7.42-4.66c3.35-2.45,5.23-7.19,5.23-13.29,0-3.5-.62-7.29-1.84-11.27l-7.23,4.01-8.35,2.98-4.67,3.08c-.11,1.61-.47,6.72-.85,12.33"/>
    <path class="cls-8" d="M949.99,340.46c0,14.62-10.15,20.54-22.68,13.23-12.52-7.31-22.68-25.08-22.68-39.7s10.15-20.54,22.68-13.23c12.52,7.31,22.68,25.08,22.68,39.69"/>
    <path d="M937.44,357.9c-3.29,0-6.92-1.1-10.66-3.28-12.79-7.46-23.2-25.69-23.2-40.62,0-7.47,2.55-13.06,7.17-15.76,4.63-2.7,10.69-2.13,17.09,1.6,12.79,7.47,23.21,25.69,23.21,40.62,0,7.47-2.55,13.06-7.17,15.76-1.92,1.12-4.09,1.68-6.43,1.68M917.19,298.7c-1.98,0-3.79.46-5.38,1.39-3.94,2.3-6.11,7.24-6.11,13.91,0,14.25,9.93,31.65,22.15,38.77,5.71,3.34,11.03,3.91,14.98,1.61,3.94-2.3,6.11-7.24,6.11-13.91,0-14.25-9.93-31.64-22.15-38.77-3.41-1.99-6.68-3-9.59-3"/>
    <path d="M942.36,336.01c0,9.7-6.74,13.63-15.04,8.78-8.31-4.85-15.04-16.64-15.04-26.33s6.74-13.63,15.04-8.78c8.31,4.85,15.04,16.64,15.04,26.33"/>
    <path d="M934.03,347.94c-2.25,0-4.71-.75-7.25-2.23-8.59-5.01-15.57-17.24-15.57-27.26,0-5.09,1.75-8.91,4.93-10.77,3.18-1.85,7.34-1.48,11.69,1.07,8.58,5.01,15.57,17.24,15.57,27.26,0,5.09-1.75,8.91-4.93,10.77-1.33.78-2.83,1.16-4.45,1.16M920.6,308.66c-1.25,0-2.39.29-3.39.87-2.5,1.46-3.88,4.63-3.88,8.92,0,9.34,6.51,20.74,14.51,25.41,3.68,2.15,7.08,2.53,9.58,1.07,2.5-1.46,3.88-4.63,3.88-8.92,0-9.34-6.51-20.74-14.52-25.41-2.21-1.29-4.31-1.94-6.18-1.94"/>
    <path class="cls-8" d="M927.31,309.66c-2.49-1.45-4.83-2.1-6.9-2.06-1.85,1.84-2.95,4.79-2.95,8.69,0,9.7,6.73,21.49,15.04,26.34,2.49,1.45,4.83,2.1,6.9,2.06,1.85-1.84,2.95-4.79,2.95-8.69,0-9.7-6.73-21.49-15.04-26.34"/>
    <path d="M939.21,345.76c-2.29,0-4.72-.74-7.23-2.2-8.59-5.01-15.57-17.24-15.57-27.26,0-4.06,1.13-7.33,3.27-9.46l.3-.3h.42c2.33-.06,4.86.68,7.44,2.19,8.59,5.01,15.57,17.24,15.57,27.26,0,4.06-1.13,7.33-3.27,9.46l-.3.3h-.42c-.07.01-.14.01-.21.01M920.87,308.67c-1.54,1.73-2.35,4.35-2.35,7.62,0,9.34,6.51,20.74,14.52,25.41,2.05,1.2,4.09,1.86,5.92,1.91,1.54-1.73,2.35-4.35,2.35-7.62,0-9.34-6.51-20.74-14.52-25.41-2.05-1.2-4.09-1.86-5.92-1.91"/>
    <polygon class="cls-8" points="913.47 322.05 912.68 320.61 923.11 314.84 923.89 316.28 913.47 322.05"/>
    <polygon class="cls-8" points="926.6 343.74 925.82 342.3 936.24 336.53 937.02 337.97 926.6 343.74"/>
    <polygon class="cls-8" points="951.26 343.79 950.48 342.35 956.09 339.25 956.87 340.69 951.26 343.79"/>
    <path d="M725.43,356.73c-2.75,1.6-4.97,5.5-4.97,8.7v9.69c0,3.2,2.23,4.5,4.97,2.9,2.74-1.6,4.97-5.5,4.97-8.7v-9.69c0-3.2-2.23-4.5-4.97-2.9M725.43,366.5c-1.93,1.13-3.5.21-3.5-2.04s1.57-5,3.5-6.13c1.93-1.13,3.5-.21,3.5,2.04s-1.57,5-3.5,6.13"/>
    <path d="M723.21,379.78c-.66,0-1.27-.16-1.82-.48-1.28-.75-1.98-2.23-1.98-4.18v-9.69c0-3.6,2.41-7.83,5.5-9.63,1.67-.97,3.29-1.1,4.57-.35,1.28.75,1.99,2.23,1.99,4.18v9.69c0,3.6-2.42,7.83-5.5,9.63-.95.55-1.89.83-2.75.83M721.51,366.82v8.3c0,1.14.34,1.98.93,2.33.59.34,1.48.22,2.46-.35,2.41-1.41,4.44-4.97,4.44-7.78v-5.98c-.71,1.7-1.95,3.26-3.38,4.09-1.26.73-2.55.82-3.54.25-.36-.21-.67-.5-.91-.86M726.99,358.92c-.29,0-.65.12-1.04.34-1.61.94-2.98,3.32-2.98,5.21,0,.67.19,1.18.5,1.37.31.18.84.09,1.42-.25,1.61-.94,2.97-3.33,2.97-5.21,0-.67-.18-1.18-.5-1.37-.11-.06-.24-.09-.38-.09"/>
    <path d="M824.7,415.75h-3.84c-.18,0-.32-.14-.33-.33-.21-7.87-5.46-15.7-15.75-21.7-21.01-12.26-55.08-12.26-76.09,0-10.29,6.01-15.53,13.84-15.75,21.7,0,.18-.15.33-.33.33h-3.84c-.28,0-.44.32-.27.55l7.9,10.71h0c2.62,4.05,6.7,7.85,12.28,11.1,21.01,12.26,55.08,12.26,76.09,0,5.58-3.26,9.67-7.06,12.28-11.1h.01l7.89-10.72c.17-.23,0-.55-.27-.55"/>
    <path d="M766.74,448.35c-13.97,0-27.94-3.1-38.58-9.31-5.53-3.23-9.76-7.04-12.56-11.33l-.05-.07-7.9-10.71c-.32-.43-.37-1-.13-1.48.24-.48.72-.78,1.25-.78h3.15c.52-8.32,6.26-16.07,16.24-21.89,21.27-12.41,55.88-12.41,77.15,0,9.98,5.82,15.72,13.57,16.24,21.89h3.14c.53,0,1.01.3,1.25.78.24.48.19,1.05-.12,1.48l-7.97,10.82c-2.8,4.27-7.02,8.07-12.54,11.29-10.64,6.21-24.61,9.31-38.58,9.31M716.93,425.95h.04l.32.48c2.62,4.05,6.63,7.67,11.93,10.77,20.69,12.07,54.35,12.07,75.04,0,5.3-3.09,9.31-6.71,11.93-10.77l.36-.48,6.72-9.13h-2.41c-.76,0-1.36-.6-1.38-1.37-.21-7.81-5.61-15.21-15.22-20.81-20.69-12.07-54.35-12.07-75.04,0-9.61,5.6-15.01,12.99-15.22,20.81-.02.77-.63,1.37-1.38,1.37h-2.42l6.73,9.13Z"/>
    <path class="cls-8" d="M735.93,441.63c15.13,6.19,34.48,7.33,51.14,3.37l12.54-26.35-82.44-6.61,18.76,29.59Z"/>
    <path d="M766.75,448.39c-10.99,0-21.88-1.96-31.22-5.78l-.31-.13-20.09-31.69,86.1,6.9-13.43,28.22-.49.12c-6.65,1.58-13.62,2.36-20.56,2.36M736.64,440.76c14.65,5.9,33.15,7.13,49.7,3.31l11.65-24.49-78.79-6.31,17.43,27.49Z"/>
    <path class="cls-8" d="M812.15,373.94c25.08,14.64,25.08,38.37,0,53-25.08,14.64-65.75,14.64-90.83,0-25.08-14.64-25.08-38.37,0-53,25.08-14.64,65.75-14.64,90.83,0"/>
    <path d="M766.74,438.96c-16.64,0-33.28-3.69-45.94-11.09-12.47-7.28-19.34-17.02-19.34-27.42s6.87-20.15,19.34-27.42c25.33-14.78,66.55-14.78,91.89,0,12.47,7.28,19.34,17.02,19.34,27.42s-6.87,20.15-19.34,27.42c-12.66,7.39-29.31,11.09-45.94,11.09M766.74,364.04c-16.26,0-32.51,3.61-44.89,10.83-11.79,6.88-18.28,15.96-18.28,25.58s6.49,18.7,18.28,25.58c24.75,14.44,65.03,14.44,89.77,0,11.79-6.88,18.28-15.96,18.28-25.58s-6.49-18.7-18.28-25.58c-12.38-7.22-28.63-10.83-44.89-10.83"/>
    <path class="cls-8" d="M806.03,379.02c-21.7-11.83-56.89-11.83-78.59,0-21.7,11.83-21.7,31.02,0,42.85,21.7,11.83,56.89,11.83,78.6,0,21.7-11.83,21.7-31.02,0-42.85"/>
    <path d="M766.73,431.78c-14.41,0-28.83-2.99-39.8-8.97-10.86-5.92-16.83-13.86-16.83-22.36s5.98-16.45,16.83-22.36c21.95-11.97,57.65-11.96,79.6,0,10.85,5.92,16.83,13.86,16.83,22.36s-5.98,16.45-16.83,22.36c-10.97,5.98-25.39,8.97-39.8,8.97M766.73,371.21c-14.05,0-28.1,2.92-38.8,8.75-10.14,5.53-15.72,12.8-15.72,20.48s5.58,14.96,15.72,20.48c21.39,11.66,56.2,11.66,77.59,0,10.14-5.53,15.72-12.8,15.72-20.48s-5.58-14.96-15.72-20.48c-10.7-5.83-24.75-8.75-38.79-8.75"/>
    <path class="cls-8" d="M727.44,388.1c21.7-11.83,56.89-11.83,78.59,0,8.46,4.61,13.61,10.34,15.48,16.32.05.16.28.15.32-.01,2.17-9.02-3.09-18.46-15.8-25.38-21.7-11.83-56.89-11.83-78.59,0-12.7,6.93-17.97,16.37-15.8,25.38.04.16.27.17.32.01,1.86-5.97,7.02-11.7,15.48-16.32"/>
    <path d="M711.8,405.6s-.03,0-.04,0c-.55-.02-1.02-.41-1.15-.95-2.39-9.92,3.56-19.61,16.32-26.57,21.95-11.96,57.65-11.96,79.6,0,12.76,6.96,18.71,16.64,16.32,26.58-.13.54-.61.93-1.15.94-.01,0-.03,0-.04,0-.53,0-1.01-.35-1.17-.87-1.85-5.93-7.03-11.36-14.97-15.69-21.39-11.66-56.2-11.66-77.59,0-7.94,4.33-13.12,9.76-14.97,15.7-.16.51-.63.86-1.16.86M766.74,371.21c-14.05,0-28.1,2.92-38.8,8.75-10.43,5.68-15.99,13.2-15.71,21,2.64-5.23,7.66-9.95,14.71-13.8,21.95-11.96,57.65-11.96,79.6,0,7.05,3.84,12.07,8.57,14.71,13.8.28-7.8-5.28-15.31-15.71-21-10.7-5.83-24.74-8.75-38.8-8.75"/>
    <polygon class="cls-8" points="800.76 440.2 799.33 439.44 803.67 431.09 805.11 431.85 800.76 440.2"/>
    <path d="M790.89,382.25l4.88-7.62c-21.41-7.17-49.79-5.73-68.33,4.38-12.7,6.93-17.97,16.37-15.8,25.38.04.16.27.17.32.01,1.86-5.98,7.02-11.71,15.48-16.32,17.17-9.36,42.76-11.28,63.45-5.84"/>
    <path d="M711.8,405.59s-.03,0-.04,0c-.55-.02-1.02-.41-1.15-.95-2.39-9.93,3.56-19.61,16.32-26.57,18.48-10.08,46.93-11.91,69.17-4.45l1.3.43-6.04,9.43-.74-.2c-21.04-5.54-46.23-3.23-62.69,5.74-7.94,4.33-13.12,9.76-14.97,15.7-.16.51-.63.86-1.16.86M766.64,371.18c-14.14,0-28.1,2.99-38.7,8.77-10.43,5.69-15.99,13.2-15.71,21,2.64-5.23,7.66-9.95,14.71-13.8,16.7-9.11,42.12-11.54,63.48-6.12l3.72-5.81c-8.61-2.71-18.09-4.04-27.5-4.04"/>
    <path class="cls-8" d="M726.2,388.76l-1.54-.52c.08-.24,1.98-5.96,4.62-9.87l1.34.93c-2.51,3.72-4.4,9.41-4.42,9.47"/>
    <path d="M812.6,407.08c-2.75,1.6-4.97,5.5-4.97,8.7v9.69c0,3.2,2.23,4.5,4.97,2.9,2.74-1.6,4.97-5.5,4.97-8.7v-9.69c0-3.2-2.23-4.5-4.97-2.9M812.6,416.85c-1.93,1.13-3.5.21-3.5-2.04s1.57-5,3.5-6.13c1.93-1.13,3.5-.21,3.5,2.04s-1.57,5-3.5,6.13"/>
    <path d="M810.38,430.12c-.65,0-1.27-.16-1.82-.48-1.28-.75-1.99-2.23-1.99-4.18v-9.69c0-3.6,2.42-7.83,5.5-9.63,1.67-.97,3.29-1.1,4.57-.35,1.28.75,1.98,2.23,1.98,4.18v9.69c0,3.6-2.41,7.83-5.5,9.63-.95.55-1.88.83-2.75.83M808.69,417.16v8.3c0,1.14.34,1.98.93,2.33.59.34,1.49.22,2.46-.35,2.41-1.4,4.44-4.97,4.44-7.78v-5.98c-.71,1.7-1.95,3.26-3.39,4.09-1.26.73-2.54.83-3.53.25-.36-.21-.67-.5-.91-.86M814.17,409.26c-.29,0-.65.12-1.04.34-1.61.94-2.97,3.33-2.97,5.21,0,.67.19,1.18.5,1.37.31.18.84.09,1.42-.25,1.61-.94,2.98-3.32,2.98-5.21,0-.67-.19-1.18-.5-1.37-.1-.06-.23-.09-.38-.09"/>
    <path class="cls-8" d="M810.31,430.11c-.92,0-1.52-.29-1.58-.32l.74-1.46-.37.73.36-.74c.11.06,2.83,1.25,5.95-4.09l1.4.83c-2.47,4.23-4.95,5.05-6.49,5.05"/>
    <path d="M1070.96,557.62c-2.75,1.6-4.97,5.5-4.97,8.7v9.69c0,3.2,2.22,4.5,4.97,2.9,2.74-1.6,4.97-5.5,4.97-8.7v-9.69c0-3.2-2.23-4.5-4.97-2.9M1070.96,567.4c-1.93,1.13-3.5.21-3.5-2.04s1.57-5,3.5-6.13c1.93-1.13,3.5-.21,3.5,2.04s-1.57,5-3.5,6.13"/>
    <path d="M1068.73,580.67c-.66,0-1.27-.16-1.82-.48-1.28-.75-1.99-2.23-1.99-4.18v-9.69c0-3.6,2.42-7.83,5.5-9.63,1.67-.97,3.29-1.1,4.57-.35,1.28.75,1.99,2.23,1.99,4.18v9.69c0,3.6-2.42,7.83-5.5,9.62-.95.55-1.89.83-2.75.83M1067.04,567.71v8.3c0,1.14.34,1.98.93,2.33.59.34,1.48.21,2.46-.35,2.41-1.4,4.44-4.97,4.44-7.78v-5.98c-.71,1.7-1.95,3.26-3.38,4.1h0c-1.26.73-2.55.82-3.54.25-.36-.21-.67-.5-.91-.86M1072.52,559.81c-.29,0-.65.12-1.04.34-1.61.94-2.97,3.32-2.97,5.21,0,.67.19,1.18.5,1.37s.84.09,1.42-.25c1.61-.94,2.97-3.33,2.97-5.21,0-.67-.19-1.18-.5-1.37-.1-.06-.23-.09-.38-.09"/>
    <path d="M1170.23,616.64h-3.84c-.18,0-.32-.14-.33-.33-.21-7.87-5.46-15.7-15.75-21.7-21.01-12.26-55.08-12.26-76.09,0-10.29,6.01-15.53,13.84-15.75,21.7,0,.18-.15.33-.33.33h-3.84c-.28,0-.44.32-.27.55l7.9,10.71h0c2.62,4.05,6.7,7.85,12.28,11.1,21.01,12.26,55.08,12.26,76.09,0,5.58-3.26,9.67-7.06,12.29-11.1h.01l7.89-10.71c.17-.23,0-.55-.27-.55"/>
    <path d="M1112.27,649.24c-13.97,0-27.94-3.1-38.57-9.31-5.53-3.23-9.76-7.04-12.56-11.32l-.05-.07-7.9-10.71c-.32-.43-.37-1-.13-1.48.24-.48.72-.78,1.25-.78h3.15c.52-8.31,6.26-16.06,16.24-21.89,21.27-12.41,55.88-12.41,77.15,0,9.98,5.82,15.72,13.57,16.24,21.89h3.14c.53,0,1.01.3,1.25.78.24.48.19,1.05-.12,1.48l-7.97,10.82c-2.8,4.27-7.02,8.07-12.54,11.29-10.64,6.21-24.61,9.31-38.58,9.31M1062.46,626.84h.04l.32.48c2.62,4.05,6.63,7.67,11.93,10.77,20.69,12.07,54.35,12.07,75.04,0,5.3-3.09,9.31-6.71,11.93-10.77l.37-.48,6.72-9.13h-2.42c-.76,0-1.36-.6-1.38-1.37-.21-7.82-5.61-15.2-15.22-20.81-20.69-12.07-54.35-12.07-75.04,0-9.61,5.61-15.01,12.99-15.22,20.81-.03.77-.64,1.37-1.39,1.37h-2.42l6.73,9.13Z"/>
    <path class="cls-8" d="M1081.46,642.52c15.13,6.19,34.48,7.33,51.14,3.37l12.54-26.35-82.44-6.61,18.76,29.59Z"/>
    <path d="M1112.28,649.28c-10.99,0-21.88-1.96-31.22-5.78l-.31-.13-.18-.29-19.91-31.4,86.1,6.9-13.43,28.22-.49.12c-6.65,1.58-13.62,2.36-20.56,2.36M1082.17,641.65c14.64,5.9,33.15,7.13,49.7,3.31l11.65-24.49-78.79-6.31,17.43,27.5Z"/>
    <path class="cls-8" d="M1157.68,574.83c25.08,14.64,25.08,38.37,0,53-25.08,14.64-65.75,14.64-90.83,0-25.08-14.64-25.08-38.36,0-53,25.08-14.64,65.75-14.64,90.83,0"/>
    <path d="M1112.27,639.85c-16.64,0-33.28-3.7-45.94-11.09-12.47-7.28-19.34-17.02-19.34-27.42s6.87-20.15,19.34-27.42c25.33-14.78,66.55-14.78,91.89,0,12.47,7.28,19.34,17.02,19.34,27.42s-6.87,20.15-19.34,27.42c-12.67,7.39-29.31,11.09-45.94,11.09M1112.27,564.93c-16.26,0-32.51,3.61-44.89,10.83-11.79,6.88-18.28,15.96-18.28,25.58s6.49,18.7,18.28,25.58c24.75,14.44,65.03,14.44,89.77,0,11.79-6.88,18.28-15.96,18.28-25.58s-6.49-18.7-18.28-25.58c-12.38-7.22-28.63-10.83-44.89-10.83"/>
    <path class="cls-8" d="M1151.56,579.91c-21.7-11.83-56.89-11.83-78.59,0-21.7,11.83-21.7,31.02,0,42.85,21.7,11.83,56.89,11.83,78.6,0,21.7-11.83,21.7-31.02,0-42.85"/>
    <path d="M1112.26,632.67c-14.41,0-28.83-2.99-39.8-8.97-10.85-5.92-16.83-13.86-16.83-22.36s5.98-16.45,16.83-22.36c21.94-11.96,57.65-11.96,79.6,0,10.85,5.92,16.83,13.86,16.83,22.36,0,8.5-5.98,16.45-16.83,22.36-10.97,5.98-25.39,8.97-39.8,8.97M1112.26,572.1c-14.05,0-28.1,2.92-38.8,8.75-10.14,5.53-15.72,12.8-15.72,20.49s5.58,14.96,15.72,20.48c21.39,11.66,56.2,11.66,77.59,0,10.14-5.53,15.72-12.8,15.72-20.48s-5.58-14.96-15.72-20.49c-10.7-5.83-24.74-8.75-38.8-8.75"/>
    <path class="cls-8" d="M1072.97,588.99c21.7-11.83,56.89-11.83,78.59,0,8.46,4.61,13.61,10.34,15.48,16.32.05.16.28.15.32-.01,2.17-9.02-3.09-18.46-15.8-25.38-21.7-11.83-56.89-11.83-78.59,0-12.7,6.93-17.96,16.37-15.8,25.38.04.16.27.17.32.01,1.86-5.98,7.02-11.7,15.48-16.32"/>
    <path d="M1167.2,606.49c-.53,0-1.01-.35-1.16-.87-1.85-5.93-7.03-11.36-14.97-15.69-21.39-11.66-56.2-11.66-77.59,0-7.94,4.33-13.12,9.76-14.97,15.7-.16.53-.65.86-1.21.86-.55-.02-1.02-.41-1.15-.95-2.39-9.92,3.56-19.61,16.32-26.57,21.95-11.96,57.65-11.96,79.6,0,12.76,6.96,18.71,16.64,16.32,26.58-.13.54-.61.93-1.15.94h-.04ZM1112.27,572.1c-14.05,0-28.1,2.92-38.8,8.75-10.43,5.69-15.99,13.2-15.71,21,2.64-5.23,7.66-9.95,14.71-13.8,21.95-11.96,57.65-11.96,79.6,0,7.05,3.85,12.07,8.57,14.71,13.8.28-7.8-5.28-15.31-15.71-21-10.69-5.83-24.75-8.75-38.8-8.75"/>
    <polygon class="cls-8" points="1146.29 641.09 1144.85 640.33 1149.2 631.98 1150.64 632.74 1146.29 641.09"/>
    <path d="M1136.42,583.15l4.88-7.62c-21.41-7.17-49.79-5.73-68.33,4.38-12.7,6.93-17.97,16.37-15.8,25.38.04.16.27.17.32.01,1.86-5.98,7.02-11.71,15.48-16.32,17.17-9.36,42.76-11.29,63.45-5.84"/>
    <path d="M1057.33,606.48s-.03,0-.04,0c-.55-.02-1.02-.41-1.15-.95-2.39-9.93,3.56-19.61,16.32-26.57,18.48-10.07,46.93-11.91,69.17-4.45l1.3.43-6.04,9.43-.74-.19c-21.04-5.54-46.22-3.23-62.69,5.74-7.94,4.33-13.12,9.76-14.97,15.7-.16.51-.63.86-1.16.86M1112.17,572.07c-14.13,0-28.1,2.99-38.7,8.77-10.43,5.69-15.99,13.2-15.71,21,2.64-5.23,7.66-9.95,14.71-13.8,16.7-9.11,42.11-11.54,63.48-6.12l3.72-5.81c-8.6-2.71-18.09-4.04-27.5-4.04"/>
    <path class="cls-8" d="M1071.73,589.65l-1.54-.52c.08-.24,1.98-5.95,4.62-9.87l1.34.92c-2.51,3.73-4.4,9.41-4.42,9.47"/>
    <path d="M1158.13,607.97c-2.75,1.6-4.97,5.5-4.97,8.7v9.69c0,3.2,2.23,4.5,4.97,2.9,2.74-1.6,4.97-5.5,4.97-8.7v-9.69c0-3.2-2.23-4.5-4.97-2.9M1158.13,617.74c-1.93,1.13-3.5.21-3.5-2.04s1.57-5,3.5-6.13c1.93-1.13,3.5-.21,3.5,2.04s-1.57,5-3.5,6.13"/>
    <path d="M1155.91,631.01c-.66,0-1.27-.16-1.82-.48-1.28-.75-1.99-2.23-1.99-4.18v-9.69c0-3.6,2.42-7.83,5.5-9.63,1.67-.97,3.29-1.1,4.57-.35,1.28.75,1.98,2.23,1.98,4.18v9.69c0,3.6-2.42,7.83-5.5,9.63-.95.55-1.89.83-2.75.83M1154.22,618.05v8.3c0,1.14.34,1.98.93,2.33.59.34,1.48.22,2.46-.35,2.41-1.4,4.44-4.97,4.44-7.78v-5.98c-.71,1.7-1.95,3.26-3.39,4.09h0c-1.26.73-2.54.83-3.53.25-.36-.21-.67-.5-.91-.86M1159.7,610.15c-.29,0-.65.12-1.04.34-1.61.94-2.97,3.32-2.97,5.21,0,.67.19,1.18.5,1.37.31.18.84.09,1.42-.25,1.61-.94,2.97-3.32,2.97-5.21,0-.67-.19-1.18-.5-1.37-.1-.06-.24-.09-.38-.09"/>
    <path class="cls-8" d="M1155.84,631c-.92,0-1.52-.29-1.58-.32l.74-1.46-.37.73.36-.74c.11.05,2.83,1.25,5.95-4.1l1.4.83c-2.47,4.24-4.94,5.05-6.49,5.05"/>
    <path class="cls-12" d="M769.98,426.64c-1.63-.05-3.25-.5-4.71-1.33l-36.26-20.89c-1.15-.65-1.76-1.77-1.88-2.91l-.02-.07c-.02-.18-.18-51.21-.2-52.98,0-.05.02-.1.05-.15.13,1.11.78,2.16,1.88,2.81l36.44,20.98c1.4.82,2.98,1.25,4.54,1.3l.15,53.24Z"/>
    <path class="cls-4" d="M769.98,426.64c-1.63-.05-3.25-.5-4.71-1.33l-36.26-20.89c-1.15-.65-1.76-1.77-1.88-2.91l-.02-.07c-.02-.18-.18-51.21-.2-52.98,0-.05.02-.1.05-.15.13,1.11.78,2.16,1.88,2.81l36.44,20.98c1.4.82,2.98,1.25,4.54,1.3l.15,53.24Z"/>
    <path class="cls-20" d="M813.84,400.85l-.02.07c-.03.93-.38,1.85-1.08,2.55-.12.12-.25.23-.38.33-.13.1-.28.2-.43.28l-36.66,21.21c-.65.37-1.32.67-2.01.88-.35.12-.72.2-1.07.28-.73.13-1.47.2-2.2.18l-.15-53.24c1.75.03,3.53-.4,5.09-1.32l36.84-21.29c1.2-.68,1.83-1.88,1.9-3.1.02,3.56.17,53.11.17,53.16"/>
    <path class="cls-4" d="M813.84,400.85l-.02.07c-.03.93-.38,1.85-1.08,2.55-.12.12-.25.23-.38.33-.13.1-.28.2-.43.28l-36.66,21.21c-.65.37-1.32.67-2.01.88-.35.12-.72.2-1.07.28-.73.13-1.47.2-2.2.18l-.15-53.24c1.75.03,3.53-.4,5.09-1.32l36.84-21.29c1.2-.68,1.83-1.88,1.9-3.1.02,3.56.17,53.11.17,53.16Z"/>
    <path class="cls-12" d="M812.35,403.8c-.13.12-.27.22-.43.3l-36.66,21.19,36.66-21.21c.15-.08.3-.18.43-.28"/>
    <path class="cls-4" d="M812.35,403.8c-.13.12-.27.22-.43.3l-36.66,21.19,36.66-21.21c.15-.08.3-.18.43-.28Z"/>
    <path class="cls-16" d="M813.67,347.53v.17c-.07,1.21-.7,2.41-1.9,3.1l-36.84,21.29c-1.57.92-3.35,1.35-5.09,1.32-1.57-.05-3.15-.48-4.55-1.3l-36.44-20.98c-1.1-.65-1.75-1.7-1.88-2.81-.2-1.45.42-3.01,1.87-3.86l36.84-21.29c2.98-1.73,6.66-1.73,9.64-.02l36.44,20.98c1.3.75,1.93,2.06,1.9,3.38,0,.02.02.02.02.03"/>
    <path class="cls-4" d="M813.67,347.53v.17c-.07,1.21-.7,2.41-1.9,3.1l-36.84,21.29c-1.57.92-3.35,1.35-5.09,1.32-1.57-.05-3.15-.48-4.55-1.3l-36.44-20.98c-1.1-.65-1.75-1.7-1.88-2.81-.2-1.45.42-3.01,1.87-3.86l36.84-21.29c2.98-1.73,6.66-1.73,9.64-.02l36.44,20.98c1.3.75,1.93,2.06,1.9,3.38,0,.02.02.02.02.03Z"/>
    <path class="cls-16" d="M755.23,384.5c-3.19-5.26-6.73-2.55-7.41-1.95-.05.04-.12,0-.17-.1-.68-1.38-4.21-8.17-7.41-6.6l-5.32,2.97c-.06.03-.08.11-.05.17l3.76,6.4s0,.01,0,.02l5.02,13.76-1.36.33.05,2.81c0,.09.1.15.18.1l5.24-2.92s.01,0,.02-.01l6.58-5.25s4.9-3.07.85-9.73"/>
    <path d="M742.48,403.16c-.15,0-.29-.04-.43-.11-.26-.15-.42-.43-.42-.72l-.06-3.39,1.13-.28-4.72-12.95-3.88-6.61.07-.39c.06-.22.21-.41.4-.52l5.32-2.97c1.2-.59,3.11-.64,5.56,2.37,1.12,1.36,2.02,2.94,2.54,3.93.76-.5,2.02-1.1,3.5-.87,1.64.25,3.11,1.42,4.36,3.48,4.37,7.19-1.03,10.69-1.08,10.73l-6.61,5.27-5.26,2.94c-.13.07-.27.11-.41.11M743.04,400.07l.02,1.22,4.36-2.43,6.5-5.19c.24-.16,4.29-2.85.68-8.79-1.02-1.67-2.14-2.62-3.33-2.8-1.43-.22-2.64.72-2.97,1.02l-.59.32-.08-.14c-.27-.05-.5-.23-.63-.5-.29-.59-1.34-2.64-2.67-4.27-1.02-1.25-2.5-2.61-3.76-2l-4.75,2.65,3.52,6.04,5.28,14.49-1.58.38Z"/>
    <path d="M743.33,384.98l4.22-2.34s.05-.17.04-.19c-.33-.68-1.35-2.64-2.67-4.29l-5.37,3.1-1.59,3.09.61,1.04s0,.01,0,.02l.8,2.19,1.84,1.43,2.1-4.04Z"/>
    <path d="M741.48,390.13l-2.7-2.09-.87-2.39-.77-1.29,1.87-3.63,6.09-3.52.39.49c1.4,1.75,2.46,3.83,2.76,4.43.14.29.05.56,0,.73l-.09.28-4.29,2.38-2.4,4.62ZM740,387.15l.99.76,1.8-3.46,3.91-2.17c-.38-.74-1.09-2-1.96-3.18l-4.63,2.67-1.31,2.54.49.87.72,1.96Z"/>
    <path class="cls-8" d="M749.8,387.53c-3.19-5.26-6.73-2.55-7.41-1.95-.05.04-.12,0-.17-.1-.68-1.38-4.21-8.17-7.41-6.6-4.05,1.99.85,10.71.85,10.71l6.52,12.82c.05.09.13.14.18.1l6.59-5.26s4.9-3.07.85-9.73"/>
    <path d="M742.54,403.3l-.39-.06c-.26-.06-.49-.23-.62-.49l-6.52-12.82c-.13-.22-3.39-6.1-2.31-9.57.3-.98.9-1.69,1.79-2.12,1.16-.57,3.07-.62,5.53,2.39,1.11,1.36,2.02,2.94,2.53,3.93.76-.5,2.02-1.1,3.5-.87,1.64.25,3.11,1.42,4.36,3.48,4.37,7.19-1.03,10.69-1.08,10.73l-6.79,5.42ZM735.8,379.38c-.22,0-.45.05-.66.15-.52.25-.86.66-1.04,1.25-.74,2.39,1.33,6.92,2.2,8.46l6.21,12.23,5.98-4.77c.24-.16,4.29-2.85.68-8.79-1.02-1.67-2.14-2.62-3.34-2.8-1.44-.22-2.64.72-2.97,1.02l-.27.24-.4-.05c-.27-.05-.5-.23-.63-.5-.29-.59-1.33-2.64-2.67-4.27-.85-1.04-2.01-2.15-3.1-2.15"/>
    <polygon points="750.1 396.69 752.73 395.55 755.72 393.3 756.65 390.75 756.73 388.26 756.34 387.34 751.4 390.08 751.67 391.98 751.04 394.31 750.1 396.69"/>
    <path class="cls-17" d="M1116.02,630.46c-1.63-.05-3.25-.5-4.71-1.33l-36.26-20.89c-1.15-.65-1.77-1.77-1.88-2.91l-.02-.07c-.02-.18-.18-51.21-.2-52.98,0-.05.02-.1.05-.15.13,1.11.78,2.16,1.88,2.81l36.44,20.98c1.4.82,2.98,1.25,4.55,1.3l.15,53.24Z"/>
    <path class="cls-4" d="M1116.02,630.46c-1.63-.05-3.25-.5-4.71-1.33l-36.26-20.89c-1.15-.65-1.77-1.77-1.88-2.91l-.02-.07c-.02-.18-.18-51.21-.2-52.98,0-.05.02-.1.05-.15.13,1.11.78,2.16,1.88,2.81l36.44,20.98c1.4.82,2.98,1.25,4.55,1.3l.15,53.24Z"/>
    <path class="cls-1" d="M1159.87,604.67l-.02.07c-.03.93-.38,1.85-1.08,2.55-.12.12-.25.23-.38.33-.13.1-.28.2-.43.28l-36.66,21.21c-.65.37-1.31.67-2.01.88-.35.12-.72.2-1.07.28-.73.13-1.47.2-2.2.18l-.15-53.24c1.75.03,3.53-.4,5.09-1.32l36.84-21.29c1.2-.68,1.83-1.88,1.9-3.1.02,3.56.17,53.11.17,53.16"/>
    <path class="cls-4" d="M1159.87,604.67l-.02.07c-.03.93-.38,1.85-1.08,2.55-.12.12-.25.23-.38.33-.13.1-.28.2-.43.28l-36.66,21.21c-.65.37-1.31.67-2.01.88-.35.12-.72.2-1.07.28-.73.13-1.47.2-2.2.18l-.15-53.24c1.75.03,3.53-.4,5.09-1.32l36.84-21.29c1.2-.68,1.83-1.88,1.9-3.1.02,3.56.17,53.11.17,53.16Z"/>
    <path class="cls-12" d="M1158.39,607.62c-.13.12-.27.22-.43.3l-36.66,21.19,36.66-21.21c.15-.08.3-.18.43-.28"/>
    <path class="cls-4" d="M1158.39,607.62c-.13.12-.27.22-.43.3l-36.66,21.19,36.66-21.21c.15-.08.3-.18.43-.28Z"/>
    <path class="cls-9" d="M1159.71,551.34v.17c-.07,1.21-.7,2.41-1.9,3.1l-36.84,21.29c-1.56.92-3.35,1.35-5.09,1.32-1.56-.05-3.15-.48-4.55-1.3l-36.44-20.98c-1.1-.65-1.75-1.7-1.88-2.81-.2-1.45.42-3.01,1.86-3.86l36.84-21.29c2.98-1.73,6.66-1.73,9.64-.02l36.44,20.98c1.3.75,1.93,2.06,1.9,3.38,0,.02.02.02.02.03"/>
    <path class="cls-4" d="M1159.71,551.34v.17c-.07,1.21-.7,2.41-1.9,3.1l-36.84,21.29c-1.56.92-3.35,1.35-5.09,1.32-1.56-.05-3.15-.48-4.55-1.3l-36.44-20.98c-1.1-.65-1.75-1.7-1.88-2.81-.2-1.45.42-3.01,1.86-3.86l36.84-21.29c2.98-1.73,6.66-1.73,9.64-.02l36.44,20.98c1.3.75,1.93,2.06,1.9,3.38,0,.02.02.02.02.03Z"/>
    <path class="cls-9" d="M1080.89,581.66l2.36,3.98-1.39,5.33-1.89,1.11s0,0,0,0l2.12,5.29,8.2,4.81,1.96,5.83c.07.03.11.04.18.07l3.96-2.36s1.49-.88,1.5-.89h.02s1.08,2.62,1.08,2.62c0,0,0,0,0,0l4.03-2.39s.21-.14.29-.25l1.11-1.62c.41-.6.15-1.79-.58-2.68l-1.05-1.27c.13-.65.21-1.36.2-2.14,0-.6-.08-1.23-.17-1.85l1.18-.7.07-.04c.53-.23.6-1.02.22-1.96l-1.17-2.9c-.43-1.06-1.36-1.87-2.07-1.79l-1.03.1c-.98-1.57-2.15-3.01-3.44-4.19l-.02-1.36c-.01-.95-.7-2.12-1.53-2.58l-2.28-1.28c-.41-.23-.7-.3-.96-.14l-.1.05h0l-3.99,2.39-.86-.97c-.66-.8-1.46-1.06-1.92-.67l-4.02,2.37s-.02.06-.03.1"/>
    <path class="cls-15" d="M1092.53,609.07l-.81-.3-.32-.48-1.85-5.51-8.18-4.79-2.38-5.92.53-.77,1.57-.92,1.2-4.6-2.36-3.98.1-.37.88.23-.86-.27.09-.36.34-.24,4.02-2.37c.21-.2.65-.33,1.13-.29.68.06,1.38.48,1.95,1.17l.34.38,3.51-2.09c.75-.44,1.52,0,1.81.16l2.28,1.28c1.12.63,1.98,2.08,1.99,3.36v.98c1.11,1.04,2.11,2.26,3.02,3.63l.48-.05c1.11-.13,2.42.9,3,2.36l1.17,2.9c.71,1.76.07,2.78-.69,3.12l-.64.38c.06.5.09.95.1,1.37,0,.65-.04,1.29-.14,1.9l.78.94c1,1.21,1.27,2.83.63,3.77l-1.11,1.63c-.15.23-.4.41-.53.49l-4.68,2.78-.31-.31-.21-.04-.86-2.11c-.34.2-.64.38-.65.38l-4.31,2.56ZM1082.82,596.74l8.22,4.82,1.76,5.23,5.53-3.29,1.11,2.63,3.14-1.86,1.11-1.61c.1-.15.03-.91-.53-1.59l-1.32-1.61.09-.42c.13-.61.19-1.26.18-1.94,0-.5-.06-1.05-.16-1.72l-.09-.6,1.88-1.11c-.05.05-.04-.26-.26-.79l-1.17-2.9c-.33-.82-.94-1.23-1.14-1.23h0l-1.59.16-.3-.48c-.95-1.53-2.09-2.91-3.28-4l-.29-.26-.02-1.76c0-.64-.52-1.5-1.07-1.81l-2.28-1.28c-.17-.1-.23-.11-.24-.11l-4.55,2.78-1.36-1.53c-.38-.46-.68-.54-.74-.54h0l-3.35,2,2.13,3.59-1.58,6.06-1.55.91,1.72,4.28Z"/>
    <path class="cls-8" d="M1080.15,586.08l1.04,1.27c-.13.65-.21,1.36-.2,2.14,0,.78.1,1.58.25,2.39l-1.03.11c-.72.07-.95.99-.53,2.06l1.17,2.9c.43,1.06,1.36,1.87,2.07,1.79l1.03-.1c.98,1.57,2.15,3.01,3.44,4.19l.02,1.37c.01.96.7,2.12,1.53,2.58l2.28,1.28c.83.47,1.5.07,1.49-.89l-.02-1.37c1.28.27,2.43.12,3.39-.36l1.05,1.27c.73.89,1.65,1.12,2.06.53l1.11-1.62c.41-.6.15-1.8-.58-2.68l-1.05-1.27c.14-.65.21-1.36.2-2.14,0-.78-.1-1.58-.25-2.39l1.03-.1c.72-.07.95-1,.52-2.06l-1.17-2.9c-.43-1.06-1.36-1.87-2.07-1.8l-1.03.1c-.98-1.57-2.15-3.01-3.44-4.19l-.02-1.37c-.01-.96-.7-2.11-1.53-2.58l-2.28-1.28c-.84-.47-1.5-.07-1.49.89l.02,1.36c-1.28-.27-2.43-.12-3.39.36l-1.05-1.27c-.73-.89-1.65-1.12-2.06-.52l-1.11,1.62c-.41.6-.15,1.8.58,2.68"/>
    <path class="cls-15" d="M1091.91,609.16c-.36,0-.74-.11-1.11-.31l-2.28-1.28c-1.12-.63-1.98-2.07-1.99-3.36v-.98c-1.1-1.04-2.11-2.26-3.01-3.63l-.48.05c-1.15.09-2.42-.9-3.01-2.36l-1.17-2.9c-.38-.94-.37-1.86.02-2.5.28-.46.72-.74,1.26-.8h.08c-.07-.56-.11-1.08-.11-1.58,0-.65.04-1.29.14-1.9l-.78-.95c-1-1.21-1.27-2.83-.63-3.77l1.11-1.62c.3-.44.76-.7,1.3-.72.76-.05,1.56.4,2.21,1.18l.62.76c.68-.23,1.42-.33,2.2-.29v-.33c-.01-.79.3-1.43.87-1.77.56-.34,1.28-.3,1.97.08l2.28,1.28c1.12.63,1.98,2.07,1.99,3.36v.98c1.1,1.04,2.11,2.26,3.02,3.63l.48-.05c1.1-.12,2.42.9,3,2.36l1.17,2.9c.38.94.37,1.85-.02,2.5-.28.46-.72.74-1.26.8h-.08c.07.56.11,1.08.11,1.58,0,.64-.04,1.28-.14,1.9l.78.94c1,1.21,1.27,2.83.63,3.77l-1.11,1.62c-.3.44-.76.69-1.3.72-.7.04-1.56-.4-2.2-1.18l-.62-.76c-.68.23-1.43.33-2.2.29v.33c.01.79-.3,1.43-.87,1.77-.26.15-.55.23-.86.23M1084.44,597.68l.3.48c.95,1.53,2.09,2.91,3.28,4l.29.27.02,1.76c0,.64.52,1.5,1.07,1.81l2.28,1.28c.06.03.11.05.14.07,0-.03,0-.08,0-.15l-.03-2.49,1.1.23c1.05.22,1.99.13,2.79-.28l.65-.33,1.51,1.83c.33.4.69.49.73.52l1-1.56c.1-.16.03-.91-.53-1.6l-1.32-1.6.09-.43c.13-.62.19-1.27.18-1.94,0-.69-.09-1.44-.24-2.23l-.18-.97,2.01-.2c-.06,0-.03-.34-.22-.82l-1.17-2.9c-.33-.82-.96-1.23-1.15-1.23l-1.59.16-.3-.48c-.97-1.55-2.08-2.9-3.28-4l-.29-.27-.02-1.76c0-.63-.52-1.49-1.07-1.8l-2.28-1.28c-.06-.03-.11-.05-.14-.07,0,.03,0,.08,0,.15l.03,2.49-1.1-.23c-1.06-.22-2-.12-2.79.28l-.65.33-1.51-1.83c-.33-.4-.72-.53-.73-.52l-1,1.56c-.1.16-.03.91.53,1.59l1.32,1.6-.09.43c-.13.61-.19,1.26-.18,1.94,0,.68.09,1.44.24,2.23l.18.97-2,.2c.07,0,.01.31.21.82l1.17,2.9c.33.82.95,1.19,1.15,1.23l1.59-.16Z"/>
    <rect class="cls-15" x="1098.35" y="599.83" width="4.35" height="1.81" transform="translate(-152.61 641.78) rotate(-30.5)"/>
    <rect class="cls-15" x="1099.97" y="594.73" width="4.35" height="1.81" transform="translate(-149.79 642.25) rotate(-30.52)"/>
    <rect class="cls-15" x="1096.11" y="588.17" width="4.35" height="1.81" transform="translate(-147.01 639.03) rotate(-30.5)"/>
    <rect class="cls-15" x="1092.47" y="584.24" width="4.35" height="1.81" transform="translate(-145.48 637.34) rotate(-30.54)"/>
    <path class="cls-9" d="M1084.94,591.73c-.05-3.17,2.15-4.49,4.93-2.95,2.77,1.54,5.06,5.36,5.11,8.53.05,3.17-2.15,4.49-4.93,2.95-2.77-1.54-5.06-5.36-5.11-8.53"/>
    <path class="cls-15" d="M1092.23,601.82c-.82,0-1.71-.25-2.62-.76-3.07-1.71-5.52-5.79-5.57-9.31h0c-.03-1.87.63-3.3,1.85-4.03,1.22-.73,2.79-.63,4.42.28,3.07,1.71,5.52,5.79,5.57,9.31.03,1.87-.63,3.3-1.85,4.03-.54.32-1.15.48-1.8.48M1085.84,591.72c.05,2.83,2.17,6.38,4.64,7.76,1.03.57,1.99.69,2.62.31.63-.38.98-1.27.97-2.45-.05-2.83-2.17-6.38-4.64-7.75-1.03-.58-1.99-.69-2.61-.31-.63.38-.98,1.27-.97,2.45"/>
    <path class="cls-9" d="M1094.63,597.52c.11.06.11.06.22.11,0-.12.12-.19.12-.32-.05-3.17-2.34-6.99-5.11-8.53-.11-.06-.23,0-.34-.04,0,.12,0,.12,0,.25.05,3.17,2.34,6.99,5.11,8.53"/>
    <path class="cls-15" d="M1095.7,599.04l-1.51-.73c-3.07-1.71-5.52-5.8-5.57-9.31l.07-1.62,1.07.46c.14,0,.34.02.55.14,3.07,1.71,5.52,5.79,5.58,9.31v.27s-.13.26-.13.26l-.05,1.21ZM1090.61,590.42c.46,2.01,1.73,4.12,3.28,5.47-.46-2.01-1.72-4.12-3.28-5.47"/>
    <rect class="cls-15" x="1087.68" y="596.47" width="5.06" height="1.81" transform="translate(-152.05 644.44) rotate(-30.89)"/>
    <path d="M811.59,408.99l-44.98-147.69-40.21,95.85-1.95-.83,40.47-96.44c.2-.69.9-1.22,1.73-1.22.02,0,.03,0,.05,0,.85.02,1.55.6,1.75,1.43l45.16,148.28-2.02.63Z"/>
    <path class="cls-10" d="M774.09,260.67l-6.87-15.79c-.51-1.17-2.15-1.17-2.66,0l-6.87,15.79c-.81,2.13.8,4.52,4.93,5.62,2.13.57,4.4.57,6.53,0,4.13-1.1,5.74-3.48,4.93-5.62"/>
    <path d="M765.89,267.78c-1.19,0-2.38-.15-3.53-.46-2.68-.72-4.62-2.03-5.46-3.69-.55-1.08-.61-2.24-.18-3.35l6.88-15.83c.4-.93,1.28-1.51,2.3-1.51h0c1.01,0,1.89.58,2.3,1.51l6.88,15.83c.42,1.11.36,2.27-.18,3.35-.84,1.66-2.78,2.97-5.46,3.69-1.16.31-2.35.46-3.53.46M765.89,245.08c-.1,0-.27.03-.36.24l-6.87,15.79c-.19.49-.15,1.03.11,1.56.56,1.1,2.06,2.04,4.12,2.59,1.96.52,4.03.52,5.99,0,2.06-.55,3.57-1.5,4.12-2.59.26-.52.3-1.06.1-1.59l-6.85-15.76c-.09-.21-.27-.24-.36-.24"/>
    <path d="M767.92,266.55c4.54-1.03,7.01-3.64,6.16-5.87l-6.86-15.79c-.26-.58-.79-.88-1.33-.88l2.03,22.53Z"/>
    <polygon class="cls-10" points="771.3 262.57 768.96 254.71 770.52 254.23 772.86 262.1 771.3 262.57"/>
    <path d="M767.52,244.02h-3.25v-.87c0-3.74-1.82-7.3-5-9.78-1.92-1.5-3.2-3.44-3.79-5.76-.96-3.75-.41-7.46,1.53-10.16,1.54-2.15,3.81-3.43,6.38-3.6,4.42-.28,7.46,1.48,8.82,5.13l-3.04,1.15c-.52-1.41-1.68-3.27-5.56-3-1.61.11-2.97.88-3.95,2.25-1.36,1.91-1.73,4.61-1.02,7.41.41,1.59,1.29,2.93,2.64,3.98,3.98,3.11,6.26,7.62,6.26,12.38v.87Z"/>
    <path class="cls-10" d="M759.68,219.32l-2.57-2.02c.29-.38,2.98-3.66,6.46-3.45l-.2,3.28c-1.61-.09-3.24,1.59-3.7,2.19"/>
    <path d="M1157.12,609.88l-44.98-147.69-40.21,95.85-1.95-.83,40.47-96.44c.2-.71.91-1.28,1.78-1.22.85.02,1.55.6,1.75,1.43l45.16,148.28-2.02.63Z"/>
    <path class="cls-10" d="M1119.62,461.56l-6.87-15.79c-.51-1.17-2.15-1.17-2.66,0l-6.87,15.79c-.81,2.13.8,4.52,4.93,5.62,2.13.57,4.4.57,6.53,0,4.13-1.1,5.74-3.48,4.93-5.62"/>
    <path d="M1111.42,468.68c-1.19,0-2.38-.15-3.53-.46-2.68-.72-4.62-2.02-5.46-3.69-.55-1.08-.61-2.23-.19-3.35l6.88-15.83c.41-.93,1.28-1.51,2.3-1.51h0c1.01,0,1.89.58,2.3,1.51l6.88,15.83c.43,1.11.36,2.27-.19,3.35-.84,1.66-2.78,2.97-5.46,3.68-1.16.31-2.34.46-3.53.46M1111.42,445.97c-.1,0-.27.03-.36.24l-6.87,15.79c-.19.49-.15,1.03.11,1.56.56,1.1,2.06,2.04,4.12,2.59,1.96.52,4.03.52,5.99,0,2.06-.55,3.56-1.49,4.12-2.59.27-.52.3-1.06.11-1.59l-6.85-15.76c-.09-.21-.27-.24-.36-.24"/>
    <path d="M1113.45,467.44c4.54-1.03,7.01-3.64,6.16-5.87l-6.86-15.79c-.26-.58-.79-.88-1.33-.88l2.03,22.53Z"/>
    <polygon class="cls-10" points="1116.83 463.47 1114.49 455.6 1116.05 455.12 1118.39 462.99 1116.83 463.47"/>
    <path d="M1113.05,444.91h-3.25v-.87c0-3.74-1.82-7.3-5-9.78-1.92-1.5-3.2-3.44-3.79-5.76-.96-3.75-.41-7.45,1.53-10.16,1.54-2.16,3.81-3.44,6.38-3.61,4.42-.28,7.46,1.48,8.82,5.13l-3.05,1.15c-.52-1.41-1.68-3.27-5.56-3-1.61.11-2.98.88-3.95,2.25-1.36,1.91-1.73,4.61-1.02,7.41.41,1.6,1.29,2.94,2.64,3.98,3.98,3.1,6.26,7.62,6.26,12.38v.87Z"/>
    <path class="cls-8" d="M1105.21,420.21l-2.57-2.02c.29-.38,2.98-3.66,6.46-3.45l-.2,3.28c-1.64-.08-3.24,1.59-3.7,2.19"/>
  </g>
</svg>