<svg width="90" height="30" viewBox="0 0 90 30" fill="none" xmlns="http://www.w3.org/2000/svg">
<path d="M85.2718 20.2451H84.977C82.6528 20.2451 80.7683 22.1306 80.7683 24.4572V25.0707C80.7683 27.3968 82.6523 29.2823 84.977 29.2823H85.2718C87.596 29.2823 89.4805 27.3968 89.4805 25.0707V24.4572C89.4805 22.1311 87.5965 20.2451 85.2718 20.2451Z" fill="#C9A1FF"/>
<path d="M12.9557 29.5396H9.35279V12.9286H9.1993L7.32109 29.5396H5.13639L3.10517 12.9286H2.95168V29.5396H0V0.383789H3.79467L6.28636 20.8314H6.4781L9.00804 0.383789H12.9557V29.5396Z" fill="black"/>
<path d="M20.5838 25.6265V4.41178C20.5838 3.37619 20.1238 2.99239 19.5486 2.99239C18.8969 2.99239 18.5139 3.37619 18.5139 4.41178V25.6265C18.5139 26.7009 18.9356 27.0076 19.5486 27.0076C20.0851 27.0076 20.5838 26.6621 20.5838 25.6265ZM14.7957 24.6675V5.29423C14.7957 1.41939 16.7121 0 19.4338 0C22.3473 0 24.302 1.34282 24.302 5.29423V24.6675C24.302 28.6572 22.3085 30 19.4338 30C16.5591 30 14.7957 28.4653 14.7957 24.6675Z" fill="black"/>
<path d="M31.9296 4.94919C31.9296 3.75998 31.7379 3.41446 30.6261 3.41446H29.8596V26.5089H30.5879C31.7379 26.5089 31.9296 26.2405 31.9296 24.9742V4.94919ZM35.6473 24.744C35.6473 28.5036 33.9226 29.5396 30.3574 29.5396H26.141V0.383789H30.4726C34.0756 0.383789 35.6473 1.53471 35.6473 5.25594V24.744Z" fill="black"/>
<path d="M45.1918 29.5396H37.4872V0.383789H45.1535V3.41446H41.2054V12.6601H44.3866V15.6908H41.2054V26.5089H45.1918V29.5396Z" fill="black"/>
<path d="M54.1993 29.5396H46.4182V0.383789H50.1364V26.5089H54.1993V29.5396Z" fill="black"/>
<path d="M61.1374 25.6265V4.41178C61.1374 3.37619 60.6774 2.99239 60.1027 2.99239C59.451 2.99239 59.068 3.37619 59.068 4.41178V25.6265C59.068 26.7009 59.4897 27.0076 60.1027 27.0076C60.6392 27.0076 61.1374 26.6621 61.1374 25.6265ZM55.3493 24.6675V5.29423C55.3493 1.41939 57.2658 0 59.9875 0C62.9009 0 64.8556 1.34282 64.8556 5.29423V24.6675C64.8556 28.6572 62.8621 30 59.9875 30C57.1128 30 55.3493 28.4653 55.3493 24.6675Z" fill="black"/>
<path d="M79.1923 23.5902C79.1923 21.7231 79.001 20.5794 78.8862 20.0081L76.0566 20.2368C76.1713 20.8847 76.2861 21.8757 76.2861 23.0567C76.2861 26.1436 75.9036 26.9436 74.986 26.9436C74.2592 26.9436 73.8772 26.5245 73.8772 25.4574V4.64972C73.8772 3.39219 74.298 2.97301 75.0243 2.97301C75.9036 2.97301 76.2861 3.50655 76.2861 6.70781C76.2861 7.92754 76.2096 8.95634 76.0948 9.68033L78.9245 9.90906C79.0393 9.14679 79.154 8.15579 79.154 6.13598C79.154 1.41067 77.5479 0.000488281 74.7565 0.000488281C71.6591 0.000488281 70.1678 1.75328 70.1678 5.33591V24.619C70.1678 28.0868 71.6208 29.9162 74.7948 29.9162C77.5479 29.9162 79.1923 28.6204 79.1923 23.5902Z" fill="#FF704D"/>
<path d="M82.9995 27.2998V27.06C82.9995 26.5337 83.0993 26.0069 83.4193 25.327C83.8386 24.4339 83.9055 24.274 83.9055 23.441C83.9055 22.7611 83.8454 22.6681 83.7123 22.6681C83.5389 22.6681 83.4924 22.7945 83.4924 23.1948C83.4924 23.315 83.5123 23.5617 83.5326 23.6881L83.0329 23.7347C83.0131 23.6213 82.9932 23.408 82.9932 23.1812C82.9932 22.5014 83.2063 22.1815 83.7326 22.1815C84.2589 22.1815 84.4986 22.4616 84.4986 23.4812C84.4986 24.4412 84.2323 24.9675 83.9524 25.4874C83.7728 25.8208 83.6261 26.4072 83.6261 26.727H84.4918V27.3003H83L82.9995 27.2998Z" fill="white"/>
<path d="M86.6489 22.921C86.6489 22.7412 86.5623 22.6676 86.449 22.6676C86.3357 22.6676 86.2558 22.7407 86.2558 22.9142V26.6602C86.2558 26.807 86.3555 26.8666 86.4557 26.8666C86.556 26.8666 86.6489 26.7934 86.6489 26.6602V22.921ZM87.2551 26.5536C87.2551 27.1002 86.922 27.3468 86.4494 27.3468C86.003 27.3468 85.65 27.1002 85.65 26.5468V23.0276C85.65 22.4277 85.9962 22.181 86.4494 22.181C86.9026 22.181 87.2551 22.401 87.2551 23.0141V26.5536Z" fill="white"/>
</svg>
