<?xml version="1.0" encoding="UTF-8"?>
<svg id="Camada_2" xmlns="http://www.w3.org/2000/svg" viewBox="0 0 255.12 85.46">
  <defs>
    <style>
      .cls-1 {
        fill: #fff;
      }

      .cls-2 {
        fill: #ff704d;
      }

      .cls-3 {
        fill: #c9a1ff;
      }
    </style>
  </defs>
  <g id="Layer_1">
    <g>
      <path class="cls-3" d="M243.12,57.67h-.84c-6.63,0-12,5.37-12,12v1.75c0,6.63,5.37,12,12,12h.84c6.63,0,12-5.37,12-12v-1.75c0-6.63-5.37-12-12-12"/>
      <polygon points="36.94 84.15 26.67 84.15 26.67 36.83 26.23 36.83 20.87 84.15 14.64 84.15 8.85 36.83 8.41 36.83 8.41 84.15 0 84.15 0 1.09 10.82 1.09 17.92 59.34 18.47 59.34 25.68 1.09 36.94 1.09 36.94 84.15"/>
      <g>
        <path d="M58.69,73V12.57c0-2.95-1.31-4.04-2.95-4.04-1.86,0-2.95,1.09-2.95,4.04v60.44c0,3.06,1.2,3.93,2.95,3.93,1.53,0,2.95-.98,2.95-3.93M42.18,70.27V15.08c0-11.04,5.46-15.08,13.22-15.08,8.31,0,13.88,3.83,13.88,15.08v55.19c0,11.37-5.68,15.19-13.88,15.19s-13.22-4.37-13.22-15.19"/>
        <path d="M91.03,14.1c0-3.39-.55-4.37-3.72-4.37h-2.19v65.79h2.08c3.28,0,3.83-.76,3.83-4.37V14.1ZM101.63,70.49c0,10.71-4.92,13.66-15.08,13.66h-12.02V1.09h12.35c10.27,0,14.75,3.28,14.75,13.88v55.52Z"/>
      </g>
      <polygon points="128.85 84.15 106.88 84.15 106.88 1.09 128.74 1.09 128.74 9.73 117.48 9.73 117.48 36.06 126.55 36.06 126.55 44.7 117.48 44.7 117.48 75.52 128.85 75.52 128.85 84.15"/>
      <polygon points="154.53 84.15 132.34 84.15 132.34 1.09 142.94 1.09 142.94 75.52 154.53 75.52 154.53 84.15"/>
      <path d="M174.31,73V12.57c0-2.95-1.31-4.04-2.95-4.04-1.86,0-2.95,1.09-2.95,4.04v60.44c0,3.06,1.2,3.93,2.95,3.93,1.53,0,2.95-.98,2.95-3.93M157.81,70.27V15.08c0-11.04,5.46-15.08,13.22-15.08,8.31,0,13.88,3.83,13.88,15.08v55.19c0,11.37-5.68,15.19-13.88,15.19s-13.22-4.37-13.22-15.19"/>
      <path class="cls-2" d="M225.79,67.2c0-5.32-.55-8.58-.87-10.21l-8.07.65c.33,1.85.65,4.67.65,8.03,0,8.79-1.09,11.07-3.71,11.07-2.07,0-3.16-1.19-3.16-4.23V13.25c0-3.58,1.2-4.78,3.27-4.78,2.51,0,3.6,1.52,3.6,10.64,0,3.47-.22,6.41-.55,8.47l8.07.65c.33-2.17.65-4.99.65-10.75C225.68,4.02,221.1,0,213.14,0,204.31,0,200.06,4.99,200.06,15.2v54.93c0,9.88,4.14,15.09,13.19,15.09,7.85,0,12.54-3.69,12.54-18.02"/>
      <path class="cls-1" d="M236.64,77.77v-.68c0-1.5.28-3,1.2-4.94,1.2-2.54,1.39-3,1.39-5.37,0-1.94-.17-2.2-.55-2.2-.49,0-.63.36-.63,1.5,0,.34.06,1.04.11,1.41l-1.42.13c-.06-.32-.11-.93-.11-1.58,0-1.94.61-2.85,2.11-2.85s2.18.8,2.18,3.7c0,2.73-.76,4.23-1.56,5.72-.51.95-.93,2.62-.93,3.53h2.47v1.63h-4.25Z"/>
      <rect class="cls-1" x="241.62" y="75.83" width="1.73" height="1.94"/>
      <path class="cls-1" d="M247.05,65.3c0-.51-.25-.72-.57-.72s-.55.21-.55.7v10.67c0,.42.28.59.57.59s.55-.21.55-.59v-10.65ZM248.77,75.64c0,1.56-.95,2.26-2.3,2.26-1.27,0-2.28-.7-2.28-2.28v-10.03c0-1.71.99-2.41,2.28-2.41s2.3.63,2.3,2.37v10.08Z"/>
    </g>
  </g>
</svg>