<svg width="478" height="160" viewBox="0 0 478 160" fill="none" xmlns="http://www.w3.org/2000/svg">
<path d="M454.783 107.974H453.211C440.815 107.974 430.764 118.03 430.764 130.438V133.71C430.764 146.116 440.812 156.172 453.211 156.172H454.783C467.179 156.172 477.229 146.116 477.229 133.71V130.438C477.229 118.033 467.181 107.974 454.783 107.974Z" fill="#B6B19E"/>
<path d="M69.0972 157.545H49.8816V68.9525H49.0629L39.0458 157.545H27.3941L16.5609 68.9525H15.7423V157.545H0V2.047H20.2382L33.5273 111.101H34.5499L48.0429 2.047H69.0972V157.545Z" fill="black"/>
<path d="M109.78 136.675V23.5295C109.78 18.0064 107.327 15.9594 104.259 15.9594C100.783 15.9594 98.7405 18.0064 98.7405 23.5295V136.675C98.7405 142.405 100.99 144.041 104.259 144.041C107.12 144.041 109.78 142.198 109.78 136.675ZM78.9103 131.56V28.2359C78.9103 7.57006 89.1314 0 103.647 0C119.185 0 129.611 7.16171 129.611 28.2359V131.56C129.611 152.838 118.979 160 103.647 160C88.3154 160 78.9103 151.815 78.9103 131.56Z" fill="black"/>
<path d="M170.291 26.3958C170.291 20.0534 169.268 18.2106 163.339 18.2106H159.251V141.381H163.135C169.268 141.381 170.291 139.949 170.291 133.196V26.3958ZM190.119 131.968C190.119 152.019 180.92 157.545 161.906 157.545H139.418V2.047H162.521C181.736 2.047 190.119 8.18524 190.119 28.0318V131.968Z" fill="black"/>
<path d="M241.023 157.545H199.932V2.047H240.819V18.2106H219.762V67.5207H236.728V83.6843H219.762V141.381H241.023V157.545Z" fill="black"/>
<path d="M289.063 157.545H247.564V2.047H267.394V141.381H289.063V157.545Z" fill="black"/>
<path d="M326.066 136.675V23.5295C326.066 18.0064 323.613 15.9594 320.548 15.9594C317.072 15.9594 315.029 18.0064 315.029 23.5295V136.675C315.029 142.405 317.278 144.041 320.548 144.041C323.409 144.041 326.066 142.198 326.066 136.675ZM295.196 131.56V28.2359C295.196 7.57006 305.417 0 319.933 0C335.471 0 345.897 7.16171 345.897 28.2359V131.56C345.897 152.838 335.265 160 319.933 160C304.601 160 295.196 151.815 295.196 131.56Z" fill="black"/>
<path d="M422.359 125.815C422.359 115.856 421.339 109.757 420.727 106.71L405.635 107.93C406.247 111.385 406.859 116.671 406.859 122.969C406.859 139.432 404.819 143.699 399.925 143.699C396.049 143.699 394.012 141.464 394.012 135.773V24.7986C394.012 18.0917 396.256 15.8561 400.129 15.8561C404.819 15.8561 406.859 18.7017 406.859 35.775C406.859 42.2803 406.451 47.7672 405.839 51.6285L420.931 52.8484C421.543 48.7829 422.155 43.4976 422.155 32.7253C422.155 7.52361 413.589 0.00265503 398.701 0.00265503C382.182 0.00265503 374.228 9.35086 374.228 28.4582V131.302C374.228 149.796 381.978 159.553 398.905 159.553C413.589 159.553 422.359 152.642 422.359 125.815Z" fill="#FF704D"/>
<path d="M442.664 145.599V144.32C442.664 141.513 443.196 138.704 444.903 135.077C447.139 130.314 447.496 129.461 447.496 125.019C447.496 121.392 447.176 120.896 446.465 120.896C445.541 120.896 445.293 121.571 445.293 123.706C445.293 124.347 445.399 125.662 445.507 126.337L442.842 126.585C442.736 125.98 442.631 124.843 442.631 123.633C442.631 120.007 443.767 118.301 446.574 118.301C449.381 118.301 450.659 119.795 450.659 125.233C450.659 130.353 449.239 133.16 447.746 135.933C446.788 137.711 446.006 140.838 446.006 142.544H450.623V145.602H442.667L442.664 145.599Z" fill="white"/>
<path d="M462.128 122.245C462.128 121.286 461.665 120.894 461.061 120.894C460.457 120.894 460.031 121.284 460.031 122.209V142.188C460.031 142.971 460.563 143.289 461.097 143.289C461.632 143.289 462.128 142.898 462.128 142.188V122.245ZM465.361 141.619C465.361 144.534 463.584 145.85 461.064 145.85C458.683 145.85 456.8 144.534 456.8 141.583V122.814C456.8 119.614 458.646 118.299 461.064 118.299C463.481 118.299 465.361 119.472 465.361 122.742V141.619Z" fill="white"/>
</svg>
