<?xml version="1.0" encoding="UTF-8"?>
<svg id="Camada_2" xmlns="http://www.w3.org/2000/svg" viewBox="0 0 1848 619.06">
  <defs>
    <style>
      .cls-1 {
        fill: #fff;
      }

      .cls-2 {
        fill: #ff704d;
      }

      .cls-3 {
        fill: #c9a1ff;
      }
    </style>
  </defs>
  <g id="Layer_1">
    <g>
      <path class="cls-3" d="M1761.09,417.77h-6.09c-48,0-86.92,38.91-86.92,86.92v12.66c0,48,38.91,86.91,86.92,86.91h6.09c48,0,86.92-38.91,86.92-86.91v-12.66c0-48-38.91-86.92-86.92-86.92"/>
      <polygon points="267.57 609.57 193.16 609.57 193.16 266.79 189.99 266.79 151.2 609.57 106.08 609.57 64.13 266.79 60.96 266.79 60.96 609.57 0 609.57 0 7.92 78.37 7.92 129.83 429.86 133.79 429.86 186.04 7.92 267.57 7.92 267.57 609.57"/>
      <g>
        <path d="M425.11,528.82V91.04c0-21.37-9.5-29.29-21.38-29.29-13.46,0-21.37,7.92-21.37,29.29v437.78c0,22.17,8.71,28.5,21.37,28.5,11.08,0,21.38-7.13,21.38-28.5M305.57,509.02V109.25C305.57,29.29,345.15,0,401.36,0c60.17,0,100.54,27.71,100.54,109.25v399.78c0,82.33-41.17,110.04-100.54,110.04s-95.79-31.67-95.79-110.04"/>
        <path d="M659.43,102.12c0-24.54-3.96-31.67-26.92-31.67h-15.83v476.57h15.04c23.75,0,27.71-5.54,27.71-31.67V102.12ZM736.21,510.61c0,77.58-35.62,98.96-109.25,98.96h-87.08V7.92h89.46c74.41,0,106.87,23.75,106.87,100.54v402.15Z"/>
      </g>
      <polygon points="933.33 609.57 774.21 609.57 774.21 7.92 932.54 7.92 932.54 70.46 851 70.46 851 261.24 916.7 261.24 916.7 323.78 851 323.78 851 547.03 933.33 547.03 933.33 609.57"/>
      <polygon points="1119.36 609.57 958.66 609.57 958.66 7.92 1035.45 7.92 1035.45 547.03 1119.36 547.03 1119.36 609.57"/>
      <path d="M1262.65,528.82V91.04c0-21.37-9.5-29.29-21.37-29.29-13.46,0-21.37,7.92-21.37,29.29v437.78c0,22.17,8.71,28.5,21.37,28.5,11.08,0,21.37-7.13,21.37-28.5M1143.11,509.02V109.25c0-79.96,39.58-109.25,95.79-109.25,60.17,0,100.54,27.71,100.54,109.25v399.78c0,82.33-41.17,110.04-100.54,110.04s-95.79-31.67-95.79-110.04"/>
      <path class="cls-2" d="M1635.53,486.79c0-38.53-3.95-62.13-6.32-73.92l-58.44,4.72c2.37,13.37,4.74,33.82,4.74,58.19,0,63.7-7.9,80.21-26.85,80.21-15.01,0-22.9-8.65-22.9-30.67V95.94c0-25.95,8.69-34.6,23.69-34.6,18.16,0,26.06,11.01,26.06,77.07,0,25.17-1.58,46.4-3.95,61.34l58.44,4.72c2.37-15.73,4.74-36.18,4.74-77.86C1634.74,29.1,1601.57,0,1543.92,0c-63.97,0-94.77,36.17-94.77,110.1v397.92c0,71.56,30.01,109.31,95.56,109.31,56.86,0,90.82-26.74,90.82-130.54"/>
      <path class="cls-1" d="M1714.16,563.35v-4.95c0-10.86,2.06-21.73,8.67-35.76,8.66-18.43,10.04-21.73,10.04-38.92,0-14.03-1.24-15.95-3.99-15.95-3.58,0-4.54,2.61-4.54,10.87,0,2.48.41,7.57.83,10.18l-10.32.96c-.41-2.34-.82-6.74-.82-11.42,0-14.03,4.4-20.63,15.27-20.63s15.82,5.78,15.82,26.82c0,19.81-5.5,30.67-11.28,41.4-3.71,6.88-6.74,18.98-6.74,25.58h17.88v11.83h-30.81Z"/>
      <rect class="cls-1" x="1750.2" y="549.32" width="12.52" height="14.03"/>
      <path class="cls-1" d="M1789.53,472.98c0-3.71-1.79-5.23-4.13-5.23s-3.99,1.51-3.99,5.09v77.3c0,3.03,2.06,4.26,4.13,4.26s3.99-1.51,3.99-4.26v-77.16ZM1802.05,547.94c0,11.28-6.88,16.37-16.64,16.37-9.22,0-16.51-5.09-16.51-16.51v-72.62c0-12.38,7.15-17.47,16.51-17.47s16.64,4.54,16.64,17.19v73.04Z"/>
    </g>
  </g>
</svg>